<svg xmlns="http://www.w3.org/2000/svg" width="685.632" height="275.562" viewBox="0 0 685.632 275.562">
  <g id="art-binoculars" opacity="0.225">
    <path id="Path_1818" data-name="Path 1818" d="M413.68,80.888a3.032,3.032,0,0,0,.482-1.235c0-.274-.225-.161-.482.24a3.135,3.135,0,0,0-.481,1.238c0,.272.224.161.481-.242" transform="translate(102.883 19.795)" fill="#fff"/>
    <path id="Path_1819" data-name="Path 1819" d="M133.857,83.377c-.061-6.568-.27-9.78-.689-10.262a2.2,2.2,0,0,1-.32-1.719,11.85,11.85,0,0,0-.3-3.676c-.322-1.463-.659-3.34-.768-4.145-.63-4.8-.887-5.971-1.415-6.422a3.905,3.905,0,0,1-.917-1.348,1.325,1.325,0,0,0-1.09-.868c-.643,0-.708.738-.485,5.3.741,14.612.933,16.557,1.656,16.8s.724,2.071.017,2.071c-.676,0-.066,3.068.719,3.58.386.245.371.356-.062.372-.674,0-.852,1.572-.241,2.183a6.113,6.113,0,0,1,.433,2.424c.18,5.925.383,7.548,1.074,8.35.9,1.06,1.752.883,1.993-.417a2.073,2.073,0,0,1,.689-1.268.625.625,0,0,0,.161-.852,85.377,85.377,0,0,1-.452-10.1" transform="translate(31.809 13.679)" fill="#fff"/>
    <path id="Path_1820" data-name="Path 1820" d="M229.51,120.441a4.114,4.114,0,0,1-1.14,1.607,12.991,12.991,0,0,0-1.895,2.6c-.42.819-1.446,2.732-2.3,4.255s-1.428,2.875-1.283,3.02-.3.708-1,1.253-1.269,1.2-1.269,1.476a1.923,1.923,0,0,1-.742,1.094,2.678,2.678,0,0,0-.736,1.8,1.615,1.615,0,0,1-.706,1.461c-.707.275-6.2,9.524-6.2,10.438a3.049,3.049,0,0,1-1,1.349,7.538,7.538,0,0,0-1.557,2.924,11.2,11.2,0,0,1-1.077,2.664c-.355.466-.3.772.142,1.06.841.513.211,1.556-.833,1.383-.532-.1-.93.416-1.234,1.589a4.161,4.161,0,0,1-1.193,2.152,1.267,1.267,0,0,0-.462,1.525,2.667,2.667,0,0,1-.433,2.038c-.723.949-.994,3.724-.433,4.289h-.019c.674.657,2.553-1.254,3.647-3.711a20.065,20.065,0,0,1,2.314-3.981,5.049,5.049,0,0,0,1.138-2.234,4.5,4.5,0,0,1,.818-2.007c.452-.642,1.591-2.632,2.538-4.43,1.654-3.147,3.419-5.958,4.064-6.457a8.271,8.271,0,0,0,1.044-1.732A18.611,18.611,0,0,1,222.9,140.9a10.438,10.438,0,0,0,1.686-2.745,14.394,14.394,0,0,1,1.829-3.084,14.788,14.788,0,0,0,1.867-3.084c.382-.914.929-1.669,1.2-1.669s.526-.322.526-.739.195-.738.452-.738c.237,0,.818-.964,1.265-2.136a12.487,12.487,0,0,1,1.995-3.4c.641-.692,1.062-1.368.931-1.494s-.017-.821.256-1.525c.372-.964.353-1.318-.1-1.351a14.3,14.3,0,0,1-1.556-.207c-1.074-.209-3.741,1.028-3.741,1.717" transform="translate(50.763 29.555)" fill="#fff"/>
    <path id="Path_1821" data-name="Path 1821" d="M291.93,90.438c1.092,1.54,1.977,1.7,3.1.595.691-.691.658-.868-.287-1.881a3.861,3.861,0,0,1-1.045-1.7,3.6,3.6,0,0,0-1.235-1.67,3.676,3.676,0,0,1-1.238-1.669A4.1,4.1,0,0,0,289.8,82.3a10.751,10.751,0,0,1-2.221-2.729,7.256,7.256,0,0,0-1.684-2.167,5.57,5.57,0,0,1-1.365-1.461,17.673,17.673,0,0,0-3.1-2.89,11.145,11.145,0,0,1-2.889-2.956,2.617,2.617,0,0,0-1.284-1.4c-.594-.3-2.248-1.222-3.693-2.056-2.393-1.363-2.811-1.446-4.576-.979-1.83.5-1.926.611-1.926,2.522v1.991l2.135-.145a4.962,4.962,0,0,1,3.819,1.125c.934.689,2.248,1.621,2.923,2.07,2.073,1.365,13.554,12.96,14.308,14.452a28.058,28.058,0,0,0,1.687,2.763" transform="translate(66.496 16.285)" fill="#fff"/>
    <path id="Path_1822" data-name="Path 1822" d="M128.938,54.015a1.234,1.234,0,0,0-.353-1.108c-.4-.4-.546-.353-.546.209a1.86,1.86,0,0,0,.353,1.108c.192.192.45.114.546-.209" transform="translate(31.881 13.108)" fill="#fff"/>
    <path id="Path_1823" data-name="Path 1823" d="M96.366,109.5a1.243,1.243,0,0,1,.3-1.2c.432-.515.5-1.655.224-4.049a65.051,65.051,0,0,1-.3-6.967c.046-2.49-.141-3.9-.61-4.449a8.581,8.581,0,0,1-.948-3.483c-.287-3-3.225-12.333-3.884-12.333-.226,0-.418-.466-.418-1.013a8.775,8.775,0,0,0-.98-2.938,8.951,8.951,0,0,1-1-2.94c0-.561-.206-1.009-.48-1.009s-.5-.34-.5-.754A27.771,27.771,0,0,0,85.8,63.449c-1.077-2.3-1.976-4.319-1.976-4.479,0-.417-1.445-2.234-4.8-5.958-2.614-2.94-7.051-6.44-9.135-7.227-.47-.177-.852-.546-.852-.817,0-.291-.323-.516-.723-.516A11.463,11.463,0,0,1,65.263,43.2a6.5,6.5,0,0,0-2.989-1c-.353.145-.642.1-.642-.112a6.572,6.572,0,0,0-2.183-1.509c-2.008-1.06-2.584-1.14-6.793-.869A107.61,107.61,0,0,0,38.7,41.257c-1.96.4-4.7,1.719-4.7,2.266,0,.241-.322.433-.726.433a3.653,3.653,0,0,0-1.746.867,3.548,3.548,0,0,1-1.448.867c-.561,0-3.436,3.887-4.69,6.344a5.491,5.491,0,0,1-1.6,2.151,1.01,1.01,0,0,0-.627.868,4.31,4.31,0,0,1-.929,1.8c-1.414,1.8-3.1,4.963-2.81,5.252.141.146-.035.515-.383.8a9.777,9.777,0,0,0-1.513,3.02c-.465,1.348-1.044,2.906-1.269,3.451A34.591,34.591,0,0,0,15.242,72.7c-.336,1.283-.807,2.344-1.045,2.344s-.8.769-1.251,1.7c-.707,1.51-.742,1.976-.145,3.743.4,1.235.481,2.151.207,2.361-.737.528.082,21.259,1.048,26.238a19.825,19.825,0,0,1,.336,2.826c-.017.61.159,1.108.365,1.108s.532.948.707,2.1a10.256,10.256,0,0,0,1.013,3.115,1.823,1.823,0,0,1,.29,1.655,6.116,6.116,0,0,0,.081,2.905,22.822,22.822,0,0,1,.432,4,4.749,4.749,0,0,0,.4,2.216,13.262,13.262,0,0,1,.741,3.9,9.685,9.685,0,0,0,1.365,4.9,6.556,6.556,0,0,1,1.154,2.3,9.817,9.817,0,0,0,.372,1.525c.161.4.754,2.186,1.346,3.952,1.592,4.785,3.888,10.34,4.483,10.855a22.283,22.283,0,0,1,1.479,2.65,8.768,8.768,0,0,0,3.161,3.645c1.093.674,3.757,2.407,5.928,3.838a25.017,25.017,0,0,0,7.127,3.42,30.268,30.268,0,0,1,4.578,1.541,2.822,2.822,0,0,0,1.827.45.544.544,0,0,1,.742.209.813.813,0,0,0,.9.257,4.318,4.318,0,0,1,1.991.161l.016-.016c2.393.658,8.513.095,12.475-1.158,2.1-.656,2.65-1.044,2.667-1.878,0-.833.1-.9.466-.32.386.627.773.56,2.57-.435a14.99,14.99,0,0,0,3.115-2.247,8.732,8.732,0,0,1,2.04-1.639,5.72,5.72,0,0,0,1.861-2.279,7.569,7.569,0,0,1,1.669-2.361,2.885,2.885,0,0,0,1-1.383,2.618,2.618,0,0,1,.852-1.284c.4-.288.576-.657.432-.818-.161-.146,0-.8.352-1.429a3.225,3.225,0,0,0,.531-1.526.3.3,0,0,1,.336-.368c.642,0,4.7-8.543,5.155-10.856.53-2.664.8-3.581,1.285-4.142a5.466,5.466,0,0,0,.629-2.3,3.96,3.96,0,0,1,.51-1.96c.709-.546,2.427-8.637,2.263-10.694-.095-1.172-.027-2.118.131-2.118a6.013,6.013,0,0,0,.657-2.587c.194-1.429.467-3.149.592-3.822.311-1.67.244-4.915-.109-5.492M22.227,97.861c-.37.465-.754.851-.868.851-.4,0-.144-.4.674-1.044.784-.609.8-.593.194.194m67.121,8.752c-.16,6.921-.337,9.539-.691,10.131a18.887,18.887,0,0,0-.608,3.438c-.839,7.385-3.242,16.7-5.236,20.249a13.628,13.628,0,0,0-1.205,3.21,12.494,12.494,0,0,1-1.239,3.181,13.966,13.966,0,0,0-1.2,2.584,21.121,21.121,0,0,1-2.038,3.63,12.252,12.252,0,0,0-1.685,3.085c0,.593-3.035,3.966-4.721,5.251-1.844,1.4-3.806,2.2-4.993,2.053a2.8,2.8,0,0,0-1.829.355,3.725,3.725,0,0,1-1.575.674,4.71,4.71,0,0,0-1.493.5.755.755,0,0,1-.854.031,12.779,12.779,0,0,0-3.547-.225,11.892,11.892,0,0,1-4.93-.707,5.463,5.463,0,0,0-2.554-.608,2.5,2.5,0,0,1-1.8-.659,1.885,1.885,0,0,0-1.569-.595c-.353.13-1.11-.225-1.672-.787a3.431,3.431,0,0,0-1.67-1.028,3.476,3.476,0,0,1-1.734-1.22,3.378,3.378,0,0,0-2.025-1.235,1.461,1.461,0,0,1-1.27-1c-.176-.53-.513-.979-.753-.979-.4,0-.738-.53-2.762-4.319-.482-.883-1.043-1.6-1.27-1.6-.2,0-.4-.4-.4-.9a31.133,31.133,0,0,0-1.7-5.252L28.6,139.5l2.519-5.845a44.634,44.634,0,0,1,2.939-6.118,1.483,1.483,0,0,0,.433-1.14,28.952,28.952,0,0,1,2.264-5.524c1.253-2.552,2.569-5.3,2.938-6.116s1.609-3.485,2.747-5.928,2.426-5.442,2.858-6.662a20.207,20.207,0,0,1,1.829-3.71,11.687,11.687,0,0,0,1.431-2.7c.21-.676,1-2.555,1.751-4.193a32.473,32.473,0,0,0,1.7-4.319,3.487,3.487,0,0,1,.784-1.639.53.53,0,0,0,.16-.737c-.239-.4.789-2.875,3.31-7.984,1.077-2.148,2.216-8.894,2.183-12.716-.03-4.093-.064-4.16-1.41-4.64-1.912-.673-2.988.127-3.4,2.488-.177,1.06-.548,2.875-.806,4.029-.289,1.4-.274,2.217.049,2.411.3.192.177.561-.337.948a1.86,1.86,0,0,0-.738,1.524,8.829,8.829,0,0,1-.852,3.116,39.913,39.913,0,0,0-1.6,4.448c-1.557,5.539-5.639,17.582-6.166,18.258-.9,1.108-3.5,6.808-5.752,12.574a21.5,21.5,0,0,1-1.8,3.741,2.827,2.827,0,0,0-.646,1.493,3.852,3.852,0,0,1-.673,1.686,9.781,9.781,0,0,0-1.062,2.2,11.9,11.9,0,0,1-1.41,2.714c-1.253,1.767-4.74,9.121-4.74,9.989-.016,1.235-.879.577-1.17-.9-.195-.979-.513-1.383-.884-1.157-.338.209-.431.144-.255-.145a17.061,17.061,0,0,0-.448-4.639,109.125,109.125,0,0,1-1.59-21.646c.05-1.5.095-8.206.095-14.918.016-6.712.191-12.2.4-12.2s.387-.466.387-1.045a5.474,5.474,0,0,1,1.027-2.457c.56-.8.868-1.444.673-1.444s-.065-.322.274-.738.447-.738.225-.738-.034-.386.4-.868a3.479,3.479,0,0,0,.839-1.35,6.3,6.3,0,0,1,1.233-3.452,2.585,2.585,0,0,0,.756-.993,8.36,8.36,0,0,1,.769-1.48,16.148,16.148,0,0,0,1.271-3.162,11.312,11.312,0,0,1,2.5-4.1,12.436,12.436,0,0,0,1.867-2.167c0-.883,4.526-3.645,5.955-3.645a2.01,2.01,0,0,0,1.14-.337,13.8,13.8,0,0,1,3.9-.53c1.958-.095,4.11-.225,4.782-.29,1.5-.146,6.892,1.012,7.646,1.637a5.618,5.618,0,0,0,1.976.707,8.161,8.161,0,0,1,2.81,1.269,5.06,5.06,0,0,0,2.055.994,2.135,2.135,0,0,1,1.316.738,1.9,1.9,0,0,0,1.155.757c1.318.03,8.707,7.947,8.707,9.345a1.062,1.062,0,0,0,.737.818,1.185,1.185,0,0,1,.737.979.716.716,0,0,0,.723.692.465.465,0,0,1,.467.689.86.86,0,0,0,.257,1.012,1.379,1.379,0,0,1,.526,1.077,8.152,8.152,0,0,0,.691,2.328c.388.851,1.094,2.664,1.575,4.014a17.35,17.35,0,0,0,1.269,3,4.316,4.316,0,0,1,.548,1.559,4.221,4.221,0,0,0,.719,1.685,11,11,0,0,1,1.142,3.132,15.722,15.722,0,0,0,1.2,3.453c1.124,1.814,2.023,11.592,1.831,19.975" transform="translate(3.083 9.855)" fill="#fff"/>
    <path id="Path_1824" data-name="Path 1824" d="M285.168,110.631c-.58-.014.012,5.412.9,8.255.209.691.335.722,1.334.355.526-.211.61-.852.337-2.906-.581-4.24-1.238-5.672-2.569-5.7" transform="translate(70.947 27.546)" fill="#fff"/>
    <path id="Path_1825" data-name="Path 1825" d="M96.571,98.461c-.291-.1-.533.192-.533.642,0,.466.242.738.533.658A.788.788,0,0,0,97.1,99.1a.766.766,0,0,0-.527-.642" transform="translate(23.913 24.511)" fill="#fff"/>
    <path id="Path_1826" data-name="Path 1826" d="M66.163,83.957c0,.658-.241.884-.739.674-.418-.144-.739-.065-.739.194a10.972,10.972,0,0,1-1.973,2.634A14.974,14.974,0,0,0,60.43,90.59a6.451,6.451,0,0,1-1.238,1.941,3.824,3.824,0,0,0-.929,2.264,2.338,2.338,0,0,1-.978,1.878,2.03,2.03,0,0,0-1,1.349.718.718,0,0,1-.7.739c-.42,0-1.769,2.136-3.247,5.14a35.29,35.29,0,0,1-3.225,5.748,1.964,1.964,0,0,0-.708,1.2,10.31,10.31,0,0,1-1.233,2.78,9.724,9.724,0,0,0-1.223,2.906,2.982,2.982,0,0,1-1.044,1.637c-.562.481-.9,1.189-.754,1.589s.064.707-.2.707c-.893,0-.495,1.077.5,1.333.548.145,1,.45,1,.689,0,.627-.691.547-1.38-.145-.723-.721-.707-.753-1.8,2.8-.611,2.04-.723,2.988-.336,3.116a1.12,1.12,0,0,1,.546,1.043,2.005,2.005,0,0,0,.3,1.155v.017c.161.161.754.111,1.331-.1,1.062-.4,5.9-9.121,5.348-9.666-.161-.16-.062-.45.209-.643a9.457,9.457,0,0,0,1.431-2.554,16.513,16.513,0,0,1,1.764-3.21,6.292,6.292,0,0,0,1.142-2.313,5.061,5.061,0,0,1,.979-1.99,7.415,7.415,0,0,0,1.253-2.457,6.721,6.721,0,0,1,1.284-2.361,4.339,4.339,0,0,0,.994-2.007,3.663,3.663,0,0,1,.757-1.719c.592-.368,2.938-5.075,2.938-5.91a2.387,2.387,0,0,1,.709-1.365c.978-.979,3.241-5.764,3.241-6.856,0-.5.222-.9.5-.9s.481-.548.481-1.236.244-1.219.53-1.219.388-.226.21-.5a.91.91,0,0,0-1.719.483" transform="translate(10.385 20.661)" fill="#fff"/>
    <path id="Path_1827" data-name="Path 1827" d="M126.671,88.353c-.271,0-.3-.577-.082-1.348.5-1.734.292-3.131-.525-3.628-1.044-.659-1.607.385-1.625,3-.015,1.364-.16,2.471-.337,2.471-.447,0-1.11,2.377-1.251,4.433-.065.948-.224,2.507-.356,3.452a84.664,84.664,0,0,0-1.009,10.117,87.1,87.1,0,0,1-1.045,11c-.19.882-.062,1.108.628,1,.771-.131.886.271.931,3.291.031,3.1-.978,7.5-1.94,8.477a2.42,2.42,0,0,0-.322,1.351,5.049,5.049,0,0,1-1.238,2.456,8.183,8.183,0,0,0-1.543,3.18,24.065,24.065,0,0,1-2.071,4.995c-.949,1.765-2.022,3.788-2.377,4.464a5.488,5.488,0,0,0-.672,1.8.827.827,0,0,1-.388.738,17.562,17.562,0,0,0-1.987,3.55,33.843,33.843,0,0,1-2.911,5.091,7.349,7.349,0,0,0-1.366,3c-.011.707-.32,1.383-.639,1.494a.8.8,0,0,0-.593.643h-.017c0,.593,1.109.577,2.73-.051.8-.3,1.22-.752,1.062-1.169-.149-.386.272-.948.962-1.318,1.67-.9,4.5-4.446,4.915-6.181a6.856,6.856,0,0,1,.754-1.96,4.459,4.459,0,0,0,.581-1.54,3.9,3.9,0,0,1,.992-1.848,3.482,3.482,0,0,0,.913-1.67c.051-.45.115-1.157.161-1.574a37.648,37.648,0,0,1,2.267-6.52,2.214,2.214,0,0,0,.142-1.59c-.159-.417-.062-.769.21-.769.595,0,1.109-1.19,1.4-3.195.352-2.458,1.364-5.687,1.765-5.687.206,0,.372-.5.372-1.108-.034-3.613.365-6.823.9-7.353a3.18,3.18,0,0,0,.609-1.945c0-.738.2-1.411.418-1.51.672-.256,1.2-2.376.593-2.376a.539.539,0,0,0-.528.547c0,.8-2.393,2.923-2.715,2.408a.542.542,0,0,1,.21-.723,5.2,5.2,0,0,0,.8-2.5c.194-1.2.547-2.2.8-2.2s.436-.386.386-.868a4,4,0,0,1,0-1.108c.094-.256.271-1.559.768-5.925.177-1.493.629-4.561,1.015-6.839.818-4.737.913-8.448.255-8.448" transform="translate(25.879 20.712)" fill="#fff"/>
    <path id="Path_1828" data-name="Path 1828" d="M298.09,135.793a32.75,32.75,0,0,1-.964,3.951,48.382,48.382,0,0,0-1.285,6.663c-.275,2.412-.723,4.158-1.172,4.5a3.606,3.606,0,0,0-.723,2.52c0,1.524-.21,2.04-.9,2.231a2.146,2.146,0,0,0-1.222,1.735,22.344,22.344,0,0,1-1.556,4.112,8.057,8.057,0,0,0-1.012,2.809c.115.13-.211.787-.753,1.463a4.38,4.38,0,0,0-.965,2.04,25.256,25.256,0,0,1-1.975,4.672c-1.059,2.152-1.833,4.094-1.685,4.32.431.688.718.53,2.613-1.414,2.056-2.137,4-5.251,4-6.407a2.823,2.823,0,0,1,.707-1.572,18.728,18.728,0,0,0,2.471-6.392,2.408,2.408,0,0,1,.646-1.478c1.01-.659,4.83-13.248,5.332-17.583.5-4.433.657-8.2.366-8.943-.592-1.574-1.586-.13-1.923,2.776" transform="translate(70.679 32.959)" fill="#fff"/>
    <path id="Path_1829" data-name="Path 1829" d="M301.947,142.612a22.746,22.746,0,0,0-1.977,6.631c-.157.8-.045,1.364.275,1.364.29,0,.674-.786.85-1.749a5.686,5.686,0,0,1,1.028-2.457,4.693,4.693,0,0,0,.868-2.457,5.315,5.315,0,0,1,.466-2.072,1.569,1.569,0,0,0,.32-.962c0-1.3-.768-.6-1.83,1.7" transform="translate(74.673 34.924)" fill="#fff"/>
    <path id="Path_1830" data-name="Path 1830" d="M301.331,135.808c.112-.612.192-5.107.177-9.987,0-8.318-.082-9.011-1.112-10.76a8.3,8.3,0,0,1-1.105-2.6c0-.385-.225-.707-.5-.707s-.5-.3-.5-.689c0-1.333-1.479-1.333-1.992,0-.356.947-.211,2.312.546,5.3a30.383,30.383,0,0,1,1,5.347,2.269,2.269,0,0,0,.337,1.559c.207.144.336,2.1.29,4.35a28.168,28.168,0,0,0,.626,6.7v.016c.741,2.684,1.895,3.453,2.232,1.479" transform="translate(73.732 27.405)" fill="#fff"/>
    <path id="Path_1831" data-name="Path 1831" d="M685.2,201.527c.513.3.561.191.176-.53a7.435,7.435,0,0,1-.387-2.893,7.768,7.768,0,0,0-.287-2.762,10.141,10.141,0,0,1-.482-2.778c-.1-1.429-.321-1.927-.771-1.75-.451.16-.562-.015-.355-.562.355-.915-.706-3.854-1.266-3.5-.4.24-1.494-1.9-1.494-2.94a8.192,8.192,0,0,0-.531-2.087,5.455,5.455,0,0,1-.45-1.575c.049-.111-.191-.353-.515-.561a2.172,2.172,0,0,1-.593-1.654,2.727,2.727,0,0,0-.689-1.831,1.961,1.961,0,0,1-.676-1.253c0-.368-.224-.676-.5-.676s-.482-.32-.482-.7c0-.659-1.8-2.714-7.194-8.27-1.349-1.381-2.537-2.2-2.955-2.04-.433.161-.706-.049-.706-.531a.771.771,0,0,0-.738-.787c-.418,0-.739-.176-.739-.4s-.8-.676-1.766-1.028c-.979-.353-1.637-.754-1.494-.917.642-.641-8.255-4.8-9.361-4.368-.4.145-.546,0-.4-.4.21-.562-.723-1.285-1.574-1.222a8.36,8.36,0,0,1-1.927-1.253,9.02,9.02,0,0,0-1.991-1.269,5.948,5.948,0,0,1-1.589-.978c-.917-.723-1.43-.852-1.88-.483-.465.4-.706.291-.932-.417a4.75,4.75,0,0,0-2.135-1.862,7.5,7.5,0,0,1-2.217-1.541,1.01,1.01,0,0,0-1.124-.321c-.448.177-.722-.015-.722-.515a.717.717,0,0,0-.611-.787,17.2,17.2,0,0,1-3.581-1.476,22.292,22.292,0,0,0-3.324-1.478,18.8,18.8,0,0,1-2.954-1.654,23.469,23.469,0,0,0-3.709-2.008c-.611-.192-1.109-.528-1.109-.738s-.945-.691-2.1-1.059a26.2,26.2,0,0,1-4.624-2.263c-1.4-.886-2.667-1.479-2.843-1.3s-.3.05-.3-.289c0-.674-1.975-1.509-3.869-1.67a4.362,4.362,0,0,1-2.264-.963,3.335,3.335,0,0,0-1.751-.884,2.13,2.13,0,0,1-1.316-.513,3.97,3.97,0,0,0-1.942-.707,9.657,9.657,0,0,1-1.43-.257,13.631,13.631,0,0,0-2.954-.723c-.547-.08-1.543-.271-2.233-.432a55.272,55.272,0,0,0-6.406-.546,63.607,63.607,0,0,1-6.407-.513c-1.637-.387-6.28-.4-6.873-.034a.546.546,0,0,1-.754-.176c-.161-.256-.788-.371-1.4-.226s-4.64.322-8.992.388a60.436,60.436,0,0,0-9.121.608c-1.574.626-17.615.387-19.364-.272-.754-.289-1.43-.322-1.591-.065-.144.257-1.83.385-3.757.337-1.911-.064-3.6.08-3.742.321-.159.274-.4.259-.577,0a13.937,13.937,0,0,0-4.255-1.043c-6.021-.883-7.387-1.173-7.693-1.67-.3-.451-2.44-.868-5.057-.979a2.367,2.367,0,0,0-1.847.626c-.337.546-.45.546-.45.049,0-.355-.209-.515-.466-.355s-.465-.562-.481-1.573c-.016-1.028-.049-2.2-.081-2.6a13.539,13.539,0,0,1,.257-2.474,21.788,21.788,0,0,0,.29-2.214,25.372,25.372,0,0,0-.8-4.641c-.306-1.012-.226-1.14.513-.866.642.256.8.144.58-.4-.145-.417-.032-.753.256-.753.321,0,.241-.436-.226-1.108-.416-.611-1-1.06-1.284-.98-.819.192-.642-.914.3-1.976.722-.8.738-.979.129-1.381-.4-.256-.481-.448-.176-.466.674,0,.37-3.386-.385-4.3-.4-.482-.322-.624.32-.624.676,0,.787-.256.5-1.11a9.372,9.372,0,0,1-.321-2.47c.016-.757-.194-1.366-.481-1.366s-.4-.321-.242-.739c.145-.4.065-.736-.192-.736-.273,0-.482-.418-.482-.949a2.683,2.683,0,0,0-.707-1.652,2.325,2.325,0,0,1-.61-1.64c.064-.657-.209-.914-.9-.819-.547.049-.724-.016-.386-.177.353-.142.626-.8.626-1.46,0-.931-.24-1.158-1.109-1.058-.706.079-1.108-.146-1.108-.628,0-.4.275-.691.611-.61.739.144.819-.676.114-1.123a.563.563,0,0,1-.21-.772c.145-.241.049-.451-.24-.451s-.532-.32-.532-.706a7.4,7.4,0,0,0-.851-2.312,23.1,23.1,0,0,0-3.612-4.8,1.874,1.874,0,0,1-.579-1.446,1.436,1.436,0,0,0-.354-1.2c-.287-.352-1.283-1.75-2.216-3.1-3.836-5.556-4.526-6.455-5.83-7.563a3.782,3.782,0,0,1-1.346-2.12,1.345,1.345,0,0,0-.707-1.219.778.778,0,0,1-.465-.948c.145-.353-.209-.9-.769-1.205a1.842,1.842,0,0,1-1.028-1.27c0-.4-.177-.721-.4-.721-.242,0-.674-.563-.977-1.236s-.788-1.235-1.078-1.235a32.022,32.022,0,0,1-4.752-4.307,54.529,54.529,0,0,0-5.3-4.9,11.171,11.171,0,0,0-5.734-1.925c-2.133-.114-3.276.224-7.644,2.263a28.561,28.561,0,0,1-2.845,1.188,1.32,1.32,0,0,0-.866,1.237,2.375,2.375,0,0,1-1.461,1.751,10.634,10.634,0,0,0-2.905,2.874,22.4,22.4,0,0,1-3.468,3.757,6.868,6.868,0,0,0-2.569,3.678c-.576,2.167-1.333,3.389-1.878,3.05-.192-.129-.754.547-1.255,1.476-1.039,1.928-.817,1.8-3.625,1.943a9.917,9.917,0,0,0-3.277.723c-.983.53-1.446.5-2.778-.176-2.056-1.028-2.166-1.013-2.8.368-.5,1.075-1.7,1.59-4.835,2.056a15.76,15.76,0,0,0-3.386,1.43,13.929,13.929,0,0,1-2.954,1.268,21.41,21.41,0,0,0-3.485,1.2c-2.829,1.157-3.005,1.173-4.415.368a45.869,45.869,0,0,1-5.526-4.767C389,52.333,385.8,49.46,381.792,46.617l-4.243-3,1.142-2.232a5.429,5.429,0,0,0,.658-4.64,29.387,29.387,0,0,0-1.927-5.429,28.972,28.972,0,0,1-1.443-3.306,15.166,15.166,0,0,0-1.415-2.411,49.679,49.679,0,0,1-2.81-5.072,13.434,13.434,0,0,0-1.815-3.131,1,1,0,0,1-.385-.868c0-.368-.177-.691-.386-.691s-.432-.689-.5-1.543a7.619,7.619,0,0,0-.642-2.5,2.407,2.407,0,0,1-.257-1.67c.165-.387.081-.691-.162-.691S367,8.914,366.824,8.3c-.447-1.43-1.717-2.875-2.264-2.554-.222.146-.321-.016-.195-.368.294-.8-1.907-3.357-2.888-3.357a.983.983,0,0,1-.886-.512c-.353-1.062-3.868-1.831-6.245-1.381a18.742,18.742,0,0,1-4.528.209c-2.764-.306-5.025.577-4.642,1.8.452,1.4-.881,4.3-3,6.567a53.727,53.727,0,0,0-3.9,4.865c-1.832,2.619-2.794,3.18-4.9,2.8a1.6,1.6,0,0,0-1,.383c-.674.563-6.231,2.554-6.231,2.233,0-.112-.608.1-1.365.5-1.039.53-3.161.691-8.606.626-6.811-.081-7.289-.145-8.429-1.222-1.365-1.284-2.57-1.6-4.044-1.092a4.453,4.453,0,0,1-2.221.016c-1.411-.386-3.675.562-4.123,1.736-.336.883-3.678.819-4.836-.1a8.091,8.091,0,0,0-2.871-.819c-2.363-.335-3.585-.545-7.9-1.378-1.5-.275-3.049-.531-3.452-.548a2.389,2.389,0,0,1-1.237-.385,6.234,6.234,0,0,0-2.471-.4,11.344,11.344,0,0,1-3.452-.595,51.025,51.025,0,0,0-7.15-1.269c-7.8-.979-8.637-1.074-12.571-1.443-1.895-.179-4.481-.482-5.767-.692a6.516,6.516,0,0,0-2.953.032,1.082,1.082,0,0,1-1.142-.016,30.58,30.58,0,0,0-6.421-.3c-3.26.047-6.359-.127-6.9-.4-1.35-.674-4.3-.769-5.06-.176a5.3,5.3,0,0,1-2.213.593c-1.834.13-3.118.595-8.111,2.988a21.554,21.554,0,0,1-4.3,1.7c-.432,0-.787.161-.787.37a13.192,13.192,0,0,1-2.1,2.65c-5.267,5.732-6.31,7.016-7.8,9.682a31.1,31.1,0,0,1-1.913,3.083,7.358,7.358,0,0,0-.882,1.607c-.322.738-.818,1.348-1.092,1.348-.29,0-.515.481-.515,1.044,0,.834-.144.932-.658.5-.368-.29-.757-.451-.884-.321a104.248,104.248,0,0,1-11.029,1.491c-1.364.161-3.359.388-4.449.531a49.657,49.657,0,0,1-8.381.226c-2.94-.081-4.436.047-5.668.495a11.545,11.545,0,0,1-1.978,0c-2.632-.11-4.851-.962-5.172-1.988-.381-1.172-3.515-3.952-4.464-3.952-.4,0-.719-.207-.719-.481s-.5-.5-1.11-.5a7.036,7.036,0,0,1-2.5-.721,8.112,8.112,0,0,0-3.2-.739c-1.009,0-10.372-.081-20.809-.161-17.02-.126-19.348-.049-22.354.754a45.059,45.059,0,0,1-5.794,1.109A9.857,9.857,0,0,0,90.6,33.4a3.339,3.339,0,0,1-2.213.547c-.55-.144-1.11-.062-1.271.192a1.572,1.572,0,0,1-1.188.45c-1.4,0-1.911,2.89-.692,3.822.836.611.723.644-1.044.368a25.275,25.275,0,0,1-3.21-.737c-.676-.225-2.845-.658-4.8-1-3.547-.58-5.3-1.478-2.855-1.478,1.122,0,1.188-.114.657-.947-.611-.98-5.956-2.3-6.922-1.7a40.132,40.132,0,0,1-7.483,1.2,5.008,5.008,0,0,0-1.978.58c-.638.353-2.9.53-5.97.433a29.112,29.112,0,0,0-7.9.626c-3.287.852-5.331,1.027-7.061.61a4.473,4.473,0,0,0-2.57.45,6.932,6.932,0,0,1-2.619.724,3.208,3.208,0,0,0-1.942.706A16.027,16.027,0,0,1,26.818,40.1,65.684,65.684,0,0,0,15.1,49.828c-1.591,1.895-3.694,5.974-3.9,7.548-.274,2.007-.772,3.356-1.235,3.356-.244,0-.691.836-1.015,1.847A12.041,12.041,0,0,1,7.79,65.165a12.79,12.79,0,0,0-2.283,4.656,4.439,4.439,0,0,1-.7,1.893c-1.125,1.72-1.416,3.6-1.576,10.23-.079,3.386-.29,6.936-.451,7.885a23.381,23.381,0,0,0-.271,3.546A13.467,13.467,0,0,1,1.8,97.264a5.2,5.2,0,0,0-.466,2.456.535.535,0,0,1-.241.707c-.274.161-.465,1.574-.416,3.115.034,1.543-.131,5.252-.355,8.238-.515,6.921-.546,6.633.9,11.673a54.122,54.122,0,0,1,1.571,7.9c.37,3.853.5,4.561,2.442,12.99.691,2.989,1.624,6.971,2.055,8.883a17.308,17.308,0,0,0,1.4,4.188,33,33,0,0,1,2.971,7.549,15.051,15.051,0,0,0,2.1,3.949c.993,1.414,2.3,3.294,2.906,4.192,1.926,2.81,4.128,5.09,4.643,4.77.256-.161.478.095.478.562a7.092,7.092,0,0,0,1.977,2.856c6.021,6.15,10.743,10.872,11.835,11.852,1.6,1.463,5.732,4.223,6.277,4.223a12.424,12.424,0,0,1,2.492,1,16.867,16.867,0,0,0,3.161,1.189c.624.11,1.188.224,1.268.241a.982.982,0,0,0,.435,0c.176-.017.5.257.722.626a2.67,2.67,0,0,0,1.784.753,50.835,50.835,0,0,0,10.244-.046,43.757,43.757,0,0,1,4.819-.353c.736.031,1.348-.145,1.348-.385s.513-.433,1.123-.433c2.634.049,8.029-1.557,8.993-2.684a3.709,3.709,0,0,1,1.478-1.17,6.107,6.107,0,0,0,3.563-1.928,1.535,1.535,0,0,1,1.576-.593,16.2,16.2,0,0,0,4.574-.963,28.586,28.586,0,0,1,5.99-1.222,11.641,11.641,0,0,0,3.054-.385c1.33-.754,2.792-.562,3.049.417.145.546.466,1.012.724,1.012a5.2,5.2,0,0,1,1.8,1.251c1.092,1.013,1.784,1.236,3.788,1.174a15.563,15.563,0,0,1,3.711.272,10.132,10.132,0,0,0,1.975.337,4.9,4.9,0,0,1,1.478.289c1.509.563,2.376.627,9.49.643,5.813.016,7.886-.161,10.358-.932a43.958,43.958,0,0,1,6.292-1.315c1.767-.194,3.359-.595,3.55-.9.224-.371.627-.291,1.239.224,1.956,1.686,2.908,1.556,4-.547a2.431,2.431,0,0,1,1.961-1.364c2.1-.192,3.018-.4,3.386-.769a1.915,1.915,0,0,1,1.142-.34c.707,0,2.728-1.862,2.665-2.471a10.211,10.211,0,0,1,1.028-1.976c1.671-2.714,2.89-5.8,2.6-6.552-.339-.866,1.169-4.193,2.568-5.653a3.786,3.786,0,0,1,2.149-1.139c1.719-.065,3.486-.448,3.791-.851a3.663,3.663,0,0,1,1.99-.306,7.252,7.252,0,0,0,2.458-.321,12.225,12.225,0,0,1,2.713-.595,45.736,45.736,0,0,0,9.265-2.409,10.579,10.579,0,0,1,2.974-.722,44.854,44.854,0,0,0,4.945-.948,23.658,23.658,0,0,1,4.238-.722,18.113,18.113,0,0,0,4.028-.834,17.748,17.748,0,0,1,5.013-.708c2.3.1,2.346.082,2.346-1.364,0-1.654,1.267-3.195,2.309-2.809a.737.737,0,0,0,.963-.45c.21-.562.5-.595,1.254-.21.625.352.818.723.528,1.107-.481.644-.43,9.316.084,12.414.322,1.992.624,5.123,1.057,11.112.131,1.751.32,3.757.435,4.433s.337,2.231.5,3.452c.255,1.973.607,3.951,1.607,9.121a5.99,5.99,0,0,0,.8,2.151,4.554,4.554,0,0,1,.576,2.218,7.35,7.35,0,0,0,.663,2.679,3.523,3.523,0,0,1,.513,1.719,7,7,0,0,0,.3,2.087c.706,2.6,5.012,12.461,5.714,13.071a10.836,10.836,0,0,1,1.11,1.862c2.04,3.934,2.407,4.561,2.714,4.561.192,0,.628.642.978,1.43a6.062,6.062,0,0,0,1.976,2.3,40.092,40.092,0,0,1,4.4,3.981,17.122,17.122,0,0,0,4.254,3.422,3.373,3.373,0,0,1,1.817,1.475c.353.661.836,1.207,1.062,1.207A23.035,23.035,0,0,1,250.5,247.2a18.948,18.948,0,0,0,3.856,1.973,7.5,7.5,0,0,1,2.437,1.22,15.206,15.206,0,0,0,1.992,1.239c.08,0,1.461.593,3.05,1.315,3.711,1.685,11.223,3.646,12.926,3.372.724-.114,2.973-.323,4.977-.467a39.749,39.749,0,0,0,5.67-.817c4.048-1.077,12.541-5.8,11.789-6.536-.176-.177.16-.322.719-.322a2.357,2.357,0,0,0,1.684-.884,16.714,16.714,0,0,1,2.62-2.327,59.419,59.419,0,0,0,4.786-4.078c4.881-4.61,5.17-4.849,5.749-4.655.32.111.708-.161.868-.6a1.232,1.232,0,0,1,.993-.771c.371,0,.691-.209.691-.448,0-.257,1.14-.836,2.538-1.3a21.941,21.941,0,0,0,4.3-2.038c2.021-1.381,2.584-.819,1.237,1.219a3.81,3.81,0,0,0-.788,1.913.9.9,0,0,1-.386.9c-.719.451-.626,1.238.162,1.238.35,0,.931.53,1.284,1.188A3.3,3.3,0,0,0,325.347,239c1.6.433,4.174.353,4.463-.145a6.158,6.158,0,0,1,2.6-.786,24.324,24.324,0,0,0,5.348-1.782,26.569,26.569,0,0,1,3.387-1.43c.177,0,2.378-.963,4.88-2.152,6.5-3.05,7.663-3.547,10.81-4.511a12.877,12.877,0,0,0,3.692-1.67,12.215,12.215,0,0,1,3.035-1.639c1.719-.673,2.327-.722,3.116-.241.817.5,1.105.418,1.877-.513a4.5,4.5,0,0,1,1.14-1.107,41.736,41.736,0,0,0,3.551-2.2,22.718,22.718,0,0,1,4.735-2.505c.884-.192,1.3-.546,1.142-.964-.145-.367.159-.8.689-.963,1.286-.4,4.127-3,3.725-3.4-.179-.177-.047-.336.273-.336.336,0,.482-.194.336-.435s.018-.546.356-.691a8.6,8.6,0,0,0,2.071-2.392c.787-1.189,2.183-3.1,3.1-4.239.913-1.157,1.522-2.329,1.346-2.6-.16-.272-.1-.483.16-.483s.772-1.012,1.124-2.231a5.386,5.386,0,0,1,.982-2.217c.172,0,.463-.674.624-1.509a3.669,3.669,0,0,1,3.371-3.26,12.721,12.721,0,0,0,2.956-.98,6.538,6.538,0,0,1,2.343-.658c.562,0,1.009-.225,1.009-.481s1.721-1.284,3.826-2.281a20.108,20.108,0,0,0,4.319-2.505c.752-1.027,2.5.756,2.923,2.954a17.983,17.983,0,0,0,1.587,4.113c.708,1.318,1.736,3.227,2.267,4.239s1.235,1.846,1.573,1.846c.608,0,4.354,4.174,5.829,6.5a4.521,4.521,0,0,0,1.961,1.669,10.737,10.737,0,0,1,2.358,1.22,19,19,0,0,0,4.687,1.75,14.481,14.481,0,0,1,3.951,1.445c1.607,1.766,5.558,3.6,8.623,3.967,4,.482,10.423,1.942,12.223,2.779a15.365,15.365,0,0,0,4.207,1.154,33.757,33.757,0,0,1,10.535,2.522,8.38,8.38,0,0,0,2.259.674,2.851,2.851,0,0,1,1.609.964c.482.547,1.044.883,1.253.754s.658.112,1.012.53a7.626,7.626,0,0,0,2.151,1.541,9.486,9.486,0,0,1,1.751,1.092c1.2,1.5,5.155,4.368,5.718,4.158.382-.142.707-.03.707.259s1.459,1.238,3.242,2.1,3.372,1.862,3.5,2.231c.145.371.433.674.643.674a12.362,12.362,0,0,1,2.649,2.217,13.8,13.8,0,0,0,2.585,2.216c.626,0,6.359,4.11,7.017,5.01.353.5.867.917,1.155.917a15.068,15.068,0,0,1,3.374,2.343c1.572,1.285,3.6,2.89,4.479,3.566s1.911,1.524,2.264,1.893c.354.355.868.513,1.142.338.255-.161.867.175,1.348.772,2.393,2.874,4.993,5.136,6.471,5.6.578.194,1.075.531,1.075.756,0,.209.5.561,1.109.754,2.312.756,4.3,1.814,4.3,2.3,0,.225.289.417.643.417a9.447,9.447,0,0,1,2.569.994,12.664,12.664,0,0,0,2.3.979,28.809,28.809,0,0,1,3.5,1.463c1.72.787,3.742,1.67,4.465,1.958.738.275,1.333.708,1.333.963s.947.611,2.1.8a8.1,8.1,0,0,1,2.7.851c.353.273.627.368.627.194s.61-.049,1.349.257c.771.32,5.828.641,11.722.772,5.7.126,10.422.27,10.47.336a23.379,23.379,0,0,0,5.554-.515,8.363,8.363,0,0,1,2.217-.225,11.256,11.256,0,0,0,4.207-.194c2.071-.321,5.412-.577,11.834-.947a16.111,16.111,0,0,0,4.433-.914,19.613,19.613,0,0,1,5.685-.836,71.368,71.368,0,0,0,7.145-.547c1.765-.256,3.982-.543,4.929-.641,2.939-.3,12.847-4.721,15.4-6.842.738-.626,2.231-1.749,3.325-2.5,1.107-.772,2.006-1.686,2.006-2.056,0-.352.611-.8,1.35-.978a25.606,25.606,0,0,0,4.943-2.78,35.533,35.533,0,0,1,3.887-2.423c1.445,0,15.159-12.927,15.7-14.789a10.971,10.971,0,0,1,1.142-2.474c.432-.674,1.428-2.457,2.231-3.951a28.4,28.4,0,0,1,2.087-3.466,33.033,33.033,0,0,0,4.047-8.127c2.153-7.659,3.1-16.891,1.9-18.466-.418-.546-.4-.626.129-.3m-238.684-145a1.107,1.107,0,0,0,1.108-.1,11.088,11.088,0,0,1,3.325-.465c1.493-.047,3.082-.1,3.532-.13a4.375,4.375,0,0,0,1.926-.947l1.123-.916-1.039-1.044c-1.063-1.043-5.719-2.713-6.217-2.214a5.519,5.519,0,0,1-3.419.3c-.435-.274,3.932-4.609,4.641-4.609a2.8,2.8,0,0,0,1.187-.8c.658-.659.689-.9.16-1.269-.463-.336-.351-.4.416-.241.773.177,1,.049.807-.45-.179-.465-.017-.595.48-.4.515.194.726,0,.674-.608-.1-1.125,2.8-1.56,3.789-.565a22.592,22.592,0,0,0,2.106,1.637,93.743,93.743,0,0,1,9.826,9.731c2.12,2.538,7.143,9.989,7.143,10.584a25.426,25.426,0,0,0,2.764,2.97,20.274,20.274,0,0,1,3.678,4.9c.513,1.188,1.154,2.151,1.426,2.151.291,0,.513.338.513.739a.718.718,0,0,0,.691.738c.531,0,2.2,2.6,2.542,3.952.286,1.108.946,1.975,1.506,1.975.388,0,.692.465.692,1.044,0,1.123,1.54,5.94,2.023,6.359a6.019,6.019,0,0,1,.641,2.088c.195,1.027.515,1.845.724,1.845s.432.29.5.626c.337,2.184.562,4.611.819,8.463a29,29,0,0,0,.593,4.931,11.32,11.32,0,0,1,.433,3.1,12.091,12.091,0,0,0,.4,3.064.58.58,0,0,1-.225.789c-.289.175-.371.787-.21,1.333a1.152,1.152,0,0,1-.336,1.413c-.515.32-.531.546-.08,1.012,1.108,1.109-.658,5.845-1.895,5.075-.241-.146-.435-.064-.435.192a4.176,4.176,0,0,1-.979,1.574,4.892,4.892,0,0,0-.979,1.444c.016.869.979,1.559,2.3,1.654,1.109.081,1.429.323,1.269.933a3,3,0,0,0,.353,1.847c.37.687.37,1.044.031,1.044-.272,0-.5.465-.5,1.028,0,1.009-.9,3.371-2.264,5.94a6.045,6.045,0,0,0-.706,2.247,3.764,3.764,0,0,1-.723,1.912,3.705,3.705,0,0,0-.738,1.782,5.071,5.071,0,0,1-1.8,2.3c-.978.8-1.654,1.686-1.493,1.942s-.111.836-.613,1.283c-1.028.933-3.049.9-5.441-.06a4.524,4.524,0,0,0-2.377-.4c-.565.226-.674.016-.465-.836a35.737,35.737,0,0,1,3.195-7.771,7.166,7.166,0,0,0,1.092-2.472,6.6,6.6,0,0,1,.741-2.152c.863-1.655.914-1.961.255-1.542-.27.177-.37-.031-.192-.466.161-.417.48-.642.723-.482s.45-.4.45-1.218.176-1.592.418-1.736c.546-.336.573-6.214.014-6.214-.241,0-.432-.337-.432-.772s.224-.627.546-.417c.4.241.463-.144.24-1.333-.192-.914-.418-2.214-.5-2.905a7.7,7.7,0,0,0-.31-1.48,6.57,6.57,0,0,1-.43-2.583c-.032-.9-.322-1.365-.852-1.365-.577,0-.658-.161-.3-.611.465-.578.447-1.429-.114-6.536-.129-1.09-.356-3.309-.532-4.93a7.164,7.164,0,0,0-1.283-4.016c-.562-.608-.784-1.187-.515-1.363.564-.337.467-3.245-.145-4.223a9.008,9.008,0,0,1-.593-2.667,5.5,5.5,0,0,0-.66-2.49,1.868,1.868,0,0,1-.481-1.139,12.88,12.88,0,0,0-1.092-2.954c-.8-1.7-.913-2.344-.448-2.505.9-.306-.817-2.072-2.025-2.072-.513,0-2.569-1.654-4.579-3.661-2.905-2.921-3.581-3.852-3.355-4.736.386-1.445-.335-1.814-4.334-2.217-2.57-.257-3.566-.595-4.4-1.475l-1.077-1.142,1.044-1.044a4.677,4.677,0,0,1,1.285-1.028,5.981,5.981,0,0,0,1.559-1.188c1.189-1.108,1.233-1.253.481-2.007-.978-.979-3.645-.8-6.485.451a5.669,5.669,0,0,1-4.448.3,6.294,6.294,0,0,1-3.327-1.637c-.466-.61-.852-.819-.852-.481-.016.9-.9.754-2.037-.322-1-.914-.547-1.958.545-1.285m-35.951,15.93c1.267-1.2,3.049-.978,4.766.593a5.841,5.841,0,0,0,2.346,1.5c.386,0,.707.448.707.978,0,.546.226,1,.513,1a4.584,4.584,0,0,1,1.767,1.236,18.371,18.371,0,0,0,2.472,2.056c1.075.707,1.319.723,1.7.127a3.4,3.4,0,0,0,.451-1.027c0-.37-1.559-1.108-2.09-1-.209.049-.385-.3-.4-.787-.018-1.06-1.125-2.584-1.88-2.584a.54.54,0,0,1-.563-.515,5.188,5.188,0,0,0-1.525-1.911l-1.525-1.4,1.525-.225c1.364-.191,1.689.017,2.988,2.04,2.457,3.838,7.436,7.45,8.767,6.36.467-.4.45-.787-.08-1.815-.643-1.237-3.5-4.511-3.949-4.511a9.2,9.2,0,0,1-1.639-1.431c-1.462-1.461-1.414-3,.1-3,.982,0,11.914,10.244,11.447,10.71-.142.13.4.8,1.205,1.479,1.27,1.058,1.575,1.139,2.313.561,2.409-1.878,2.072-3.035-2.087-7.37a3.25,3.25,0,0,1-.756-1.029,14.269,14.269,0,0,0-1.973-2.327,10.1,10.1,0,0,1-1.975-2.489c0-.577,1.863-1.01,4.449-.994,2.149,0,2.244.062,3.337,2.327A56.615,56.615,0,0,0,443.791,74c.931,1.478,1.762,2.843,1.844,3.053s.754.256,1.494.111c1.029-.191,1.35-.547,1.35-1.444,0-1.254-2.279-5.122-3.019-5.122-.245,0-.436-.29-.436-.644a3.756,3.756,0,0,0-1.2-1.8c-.676-.627-1.123-1.316-.994-1.528.307-.48,4.384.436,4.59,1.045a.918.918,0,0,0,.841.466,2.431,2.431,0,0,1,1.33.61,41.772,41.772,0,0,0,4.862,2.745,32.59,32.59,0,0,1,5.752,3.582,7.914,7.914,0,0,0,1.847,1.445c.433,0,5.025,4.819,6.6,6.906.7.945,1.684,2.151,2.166,2.682a3.6,3.6,0,0,1,.867,1.975,4.2,4.2,0,0,0,.741,1.975,4.306,4.306,0,0,1,.737,2.214,6.383,6.383,0,0,0,.657,2.523c.756,1.445,1.381,5.474,1.414,9.231.032,1.413.176,2.588.355,2.588s.336.386.352.866a31.7,31.7,0,0,0,1.236,6.922c1.493,3.837,1.479,19.735-.031,20.232a.807.807,0,0,0-.547.721c0,.949-3.145,6.956-4.3,8.255a4.407,4.407,0,0,0-1.124,1.817c0,.32-.5.737-1.107.913-1.925.562-3.821,1.445-3.821,1.782,0,.176-.387.274-.851.21a5.4,5.4,0,0,0-2.492.786,10.228,10.228,0,0,1-4.446.963c-3.709.065-6.232,1.478-5.8,3.262.177.656.112,1.09-.11.944-.244-.142-2.186.595-4.336,1.671a26.237,26.237,0,0,1-4.675,1.943,2.275,2.275,0,0,0-1.443.979c-.386.53-.838.866-1,.772A9.392,9.392,0,0,0,438.1,160.8c-2.585,1.3-2.679,1.429-2.507,3.05.115.933.227,2.151.258,2.683.081,1.525,1.558,2.923,2.617,2.458a3.258,3.258,0,0,1,1.285-.307,3.9,3.9,0,0,0,1.735-.833,10.084,10.084,0,0,1,2.679-1.253c.741-.177,1.354-.531,1.354-.788s.784-.609,1.73-.787a4.379,4.379,0,0,0,2.443-1.316,1.355,1.355,0,0,1,1.445-.707c.626.242,5.183-1.8,6.953-3.1a14.452,14.452,0,0,1,2.844-1.043,5.855,5.855,0,0,0,2.342-1c0-.917,2.843-1.43,5.3-.964a9.915,9.915,0,0,0,3.276.225c.979-.368,2.183,3.195,1.285,3.742-.418.256-.5.849-.242,1.8l.371,1.415.465-1.365c.272-.738.691-1.349.964-1.349.256,0,.352-.209.192-.481-.4-.627.784-2.474,1.574-2.474.352,0,.625-.45.625-1,0-.706.339-.978,1.172-.978a9.91,9.91,0,0,0,2.906-.724,4.218,4.218,0,0,1,1.945-.512c.722.739,11.24,1.334,11.24.642,0-.225.306-.4.692-.4,1.333,0,3.244-6.311,3.485-11.467.272-6.148.08-5.973,5.394-5.538,2.473.207,4.832.352,5.236.321s3.949-.161,7.884-.257c3.933-.112,10.453-.353,14.467-.561,9.861-.516,14.147-.565,14.147-.194a5.124,5.124,0,0,0,2.346.707c1.283.211,2.568.417,2.841.481s2.152.259,4.19.466,4.143.45,4.69.546c.53.1,1.862.289,2.953.4a22.694,22.694,0,0,1,4.032.964,4.688,4.688,0,0,0,2.313.466c.145-.144.643.112,1.092.562a1.67,1.67,0,0,0,1.494.578,1.434,1.434,0,0,1,1.331.4,23.511,23.511,0,0,0,3.582,2.3,24.48,24.48,0,0,1,3.179,1.976,4.983,4.983,0,0,0,2.665.9c.241-.014.659.323.9.756.515.948,4.288,3.4,5.187,3.4.337,0,.626.16.626.352,0,.4,2.81,1.655,3.133,1.381.112-.1.625.194,1.123.627.9.8,3.309,1.751,3.453,1.364.049-.1.481.177,1,.612a3.779,3.779,0,0,0,1.766.866c.482.049,1.316.129,1.862.179.531.047.979.255.979.463,0,.192.306.257.692.114a.866.866,0,0,1,1.027.272.547.547,0,0,0,.723.274,29.951,29.951,0,0,1,5.94,1.509c3.052.962,5.959,1.8,6.472,1.831s.93.241.93.451.547.4,1.22.4a7.343,7.343,0,0,1,2.906.947c.933.515,1.831.818,1.992.661s.289-.035.289.272.4.577.9.577a2.159,2.159,0,0,1,1.38.513,3.542,3.542,0,0,0,1.461.693,26.288,26.288,0,0,1,4.752,2.7,26.818,26.818,0,0,0,4.305,2.522.476.476,0,0,1,.528.416c0,.225.867.8,1.943,1.284a5.179,5.179,0,0,1,2.216,1.591c.145.385.5.577.771.4s.5-.032.5.3.129.466.3.29,1.284.481,2.473,1.46c1.188.964,2.152,1.591,2.152,1.4s.321-.095.722.226a1.186,1.186,0,0,0,1.236.274c.29-.176.466-.112.4.145-.192.642,2.458,3.049,3.34,3.049.386,0,.708.195.708.436a6.225,6.225,0,0,0,1.444,1.91,15.411,15.411,0,0,1,2.426,3.774c.658,1.476,1.316,2.278,1.911,2.278.5,0,.674.161.385.37a7.9,7.9,0,0,0-1.719,2.826c0,.13.466.257,1.045.257.867,0,.947.111.432.739-.577.689-.336.964.708.771.241-.047.207.194-.082.545-.289.368-.5,2.362-.448,4.48a13.645,13.645,0,0,1-.194,3.824c-.287,0-.32.224-.706,5.667-.321,4.625-.321,4.594-1.414,8.238A8.522,8.522,0,0,1,657,222.385a17.326,17.326,0,0,0-2.327,2.6c-3.147,4.112-5.637,6.214-9.234,7.869-.611.272-1.108.707-1.108.98,0,.45-1.316,1.043-2.168.979a1.2,1.2,0,0,0-.852.626,1.461,1.461,0,0,1-.786.673,19.871,19.871,0,0,0-2.923,1.334,18.094,18.094,0,0,1-3.693,1.51,14.575,14.575,0,0,0-2.569.754,7.888,7.888,0,0,1-2.505.578,16.4,16.4,0,0,0-6.953,2.489c-1.22,1.075-3.917,2.135-8.142,3.162a34.426,34.426,0,0,0-5.667,1.976A20.312,20.312,0,0,1,604,249.394c-.9.161-2.89.611-4.448,1.027s-3.485.837-4.3.949-2.585.355-3.949.53h-.016a98.857,98.857,0,0,1-22.192-.466c-.818-.129-2.473-.385-3.693-.577a9.019,9.019,0,0,1-2.778-.787c-1.092-.852-8.623-3.372-10.069-3.372-.8,0-1.46-.195-1.46-.451s-.386-.385-.868-.3a3.455,3.455,0,0,1-1.846-.385,6.673,6.673,0,0,0-1.59-.643,24.879,24.879,0,0,1-3.211-1.333,28.318,28.318,0,0,0-4.078-1.6,6.4,6.4,0,0,1-3.582-2.279c-.432-.468-.947-.739-1.14-.627-.191.129-.626-.112-.963-.513a2,2,0,0,0-1.188-.741c-.948,0-7.579-6.727-8.607-8.735a12.076,12.076,0,0,0-1.976-2.809,3.228,3.228,0,0,1-1.06-1.476,5.255,5.255,0,0,0-1.108-1.926c-.593-.773-1.556-1.992-2.12-2.715a27.051,27.051,0,0,1-2.328-4.079,13.458,13.458,0,0,0-2.056-3.387,2.141,2.141,0,0,1-.754-1.316.715.715,0,0,0-.738-.676.71.71,0,0,1-.739-.691c0-1.139-3.821-4.27-4.767-3.9-.645.241-.756.127-.515-.513s.032-.819-.9-.819c-.674,0-1.22-.224-1.22-.5s-.353-.483-.787-.483a2.576,2.576,0,0,1-1.494-.738,7.591,7.591,0,0,0-2.81-1.253c-1.139-.3-3.068-.867-4.288-1.251a14.222,14.222,0,0,0-3.322-.707c-.613,0-1.11-.225-1.11-.5s-.432-.5-.962-.5a1.646,1.646,0,0,1-1.253-.448,1.479,1.479,0,0,0-1.124-.483,33.313,33.313,0,0,1-10.225-2.535,27.724,27.724,0,0,0-3.166-.98,13.66,13.66,0,0,1-3.339-1.318c-.628-.417-1.142-.609-1.142-.417s-.611,0-1.365-.385a68.594,68.594,0,0,0-8.382-3.789,1.815,1.815,0,0,1-1.06-.676,5.2,5.2,0,0,0-2.522-.994c-1.092-.162-1.971-.515-1.971-.756s-.708-.672-1.559-.979a12.177,12.177,0,0,1-3.6-2.649c-1.88-1.96-4.869-3.806-6.168-3.806-.31,0-.917-.836-1.336-1.847a11.423,11.423,0,0,0-1.443-2.6c-.37-.4-1.331-1.459-2.154-2.343-2.037-2.214-3.449-5.121-3.306-6.824a23.927,23.927,0,0,0-.495-4.641c-.852-4.415-.824-4.929.3-4.929.609,0,1.255-.627,1.78-1.72.452-.963,1.127-1.732,1.5-1.732s1.047-1.253,1.576-2.971c.5-1.639,1.039-2.843,1.2-2.682s.547-.5.867-1.461c.326-.979.773-1.767,1-1.767a6.523,6.523,0,0,0,1.922-1.268c.836-.706,1.526-1.125,1.526-.93s.275.13.611-.145a52.3,52.3,0,0,1,6.422-3.5c.355-.062,2.027-.916,7.725-4.013a8.016,8.016,0,0,1,3.037-1.222c.19.13.994-.114,1.764-.515a7.513,7.513,0,0,1,2.889-.738c1.012,0,2.122-.578,3.52-1.847,2.423-2.182,3.5-4.254,3.294-6.292-.084-.8-.161-5.589-.195-10.6-.049-9.265-.657-13.711-2.216-16.138a5.229,5.229,0,0,1-.708-2.376,5.81,5.81,0,0,0-.528-2.281,1.319,1.319,0,0,1,0-1.622c.4-.481-.209-1.4-2.57-3.788-3.933-3.983-5.828-4.61-10.645-3.551a61.729,61.729,0,0,1-6.234.98c-1.619.162-3.094.483-3.26.756a10.321,10.321,0,0,1-3.706.947c-5.173.723-7.1,1.254-7.1,1.977a.459.459,0,0,1-.452.431,7.6,7.6,0,0,0-1.862.563,12.4,12.4,0,0,1-2.859.674c-4.563.353-7.563.867-8.849,1.51-1.509.738-3.979.465-2.712-.3.467-.291.031-.964-1.671-2.587a10.262,10.262,0,0,1-2.311-2.713c0-.29-.451-.676-.98-.852a2.281,2.281,0,0,1-1.3-1.524,3.718,3.718,0,0,0-1.251-1.881c-.726-.5-.964-1.3-1.012-3.195-.049-1.767-.255-2.52-.741-2.52-.962,0-1.33-1.349-.558-2.088m-7.485,13.664a1.977,1.977,0,0,0,1.96-.687,5.926,5.926,0,0,1,2.361-1.336,8.239,8.239,0,0,0,2.537-1.234c1.169-.9,2.037-.837,2.037.142a4.816,4.816,0,0,0,1,1.752,4.714,4.714,0,0,1,.977,2.328c0,.689.724,1.6,1.957,2.52,2.056,1.525,2.313,2.392.724,2.522-.53.031-1.846.226-2.923.4-2.09.337-3.05-.095-5.8-2.618-.753-.688-1.366-1.107-1.366-.929s-.8-.225-1.784-.883a8.581,8.581,0,0,0-2.227-1.22.492.492,0,0,1-.42-.531c0-.3.42-.4.963-.226M402.361,91c.817.306,1.028,1.781.255,1.781-.27,0-.882.821-1.348,1.816a5.108,5.108,0,0,1-1.365,1.96c-.562.176-2.714-2.106-2.714-2.859,0-.256-.225-.337-.5-.177-.276.177-.691-.209-.933-.834a9.37,9.37,0,0,0-1.8-2.505c-.758-.739-1.224-1.511-1.044-1.685.336-.338,2.232-.646,4.127-.646a1.944,1.944,0,0,0,1.381-.5.909.909,0,0,1,1.714.451,1.386,1.386,0,0,0,.741,1.218,1.14,1.14,0,0,1,.738.984,1.205,1.205,0,0,0,.741.993m-9.573-9.555a4.377,4.377,0,0,0-1.205.289,2.116,2.116,0,0,1-1.765-.753c-.561-.563-1.008-.9-1.008-.756s-.676-.1-1.5-.513c-1.829-.948-1.895-1.349-.127-.917a8.466,8.466,0,0,0,2.1.307c1.479-.08,3.951.945,3.951,1.636,0,.385-.21.707-.451.707m5.027-5.267c1.671-.176,1.878-.047,2.811,1.782a15.258,15.258,0,0,1,.994,2.232c0,.5-.867.257-1.414-.4a9.433,9.433,0,0,0-2.537-1.559c-2.377-1.075-2.326-1.8.145-2.055M352.5,7.565c2.327-1.077,6.244,1.139,7.548,4.272a50.544,50.544,0,0,1,2.117,7.227c0,.126-.224.225-.5.225a.47.47,0,0,1-.5-.435,4.174,4.174,0,0,0-1.22-1.6,3.98,3.98,0,0,1-1.238-2.041,1.322,1.322,0,0,0-.718-1.158,2.172,2.172,0,0,1-1.028-1.218c-.162-.515-.581-.949-.934-.949a4.263,4.263,0,0,1-1.877-1.155A8.279,8.279,0,0,0,352.1,9.267c-1.122-.435-.979-1.075.4-1.7m-4.885,4.993c.818-.306,4.192,1.237,4.192,1.911,0,.21.241.387.545.387a21.234,21.234,0,0,1,4.016,3.467c2.906,2.905,3.708,3.453,4.9,3.324,1.53-.145,2.01.4,3.6,4.047a37.212,37.212,0,0,0,3.968,6.921,3.6,3.6,0,0,1,.739,2.088c0,.706.175,1.348.42,1.445a3.857,3.857,0,0,1,.753,2.007c.286,1.54.224,1.781-.417,1.54h-.015a1.575,1.575,0,0,0-1.366.177c-.418.322-1.238.112-2.54-.642a14.258,14.258,0,0,0-4.543-1.428,20.385,20.385,0,0,1-5.17-1.557,7.612,7.612,0,0,0-3.5-1c-.739.175-1.012-.112-1.27-1.335a7.01,7.01,0,0,1-.207-1.957c.627-2.183.466-5.042-.338-6.2a9.192,9.192,0,0,1-1.239-2.649c-.176-.737-.525-1.349-.768-1.349-.225,0-.916-.819-1.491-1.831a4.484,4.484,0,0,1-.789-3.4c.194-1.029.1-1.655-.288-1.781-.773-.259-.194-1.8.818-2.186m-7.98,10.568c1.045-.017,1.925.512,3.34,2.021a9.78,9.78,0,0,1,1.927,2.474,6.825,6.825,0,0,0,.723,1.846,6.257,6.257,0,0,1,.752,2.007c0,1.5-2.294.918-3.773-.979a9.456,9.456,0,0,0-2.535-2.023c-.868-.45-1.59-1.044-1.59-1.3a5.875,5.875,0,0,0-1.555-1.957c-.852-.821-1.464-1.509-1.353-1.543a21.755,21.755,0,0,1,4.064-.545m-11.757,2.76c1.525-.465,1.913-.4,3.326.674a15.379,15.379,0,0,0,2.714,1.637c.612.241,1.109.659,1.109.949,0,.608-.018.608-1.142-.049a2.159,2.159,0,0,0-1.587-.257.8.8,0,0,1-.949-.161,6.715,6.715,0,0,0-2.73-.756c-2.891-.4-3.2-1.269-.741-2.038m-69.255-2.472a6.361,6.361,0,0,0,2.411-1.222c0-.513,6.018-.032,6.566.515a1.2,1.2,0,0,0,1.143.192,30.863,30.863,0,0,1,6.227.757c5.83,1.058,9.009,1.571,11.463,1.845a16.9,16.9,0,0,1,3.279.8l1.784.658-3.758.947a43.659,43.659,0,0,1-9.346,1.028c-3.388.049-5.8.3-6.15.643a2.507,2.507,0,0,1-1.557.561c-1.235,0-5.7,2.988-5.7,3.806,0,.336-.326.481-.709.336-.4-.16-.932.161-1.253.757-.3.561-.851,1.027-1.22,1.027-.917,0-7.675,6.7-7.675,7.6a1.149,1.149,0,0,1-.608.978c-.341.161-.13.161.48.016a9.947,9.947,0,0,0,3.036-2.088c2.037-1.926,7.16-5.7,7.624-5.62a6,6,0,0,0,1.734-1.318c1.047-.98,2.7-1.669,5.848-2.439,6.422-1.574,6.73-1.445,3.838,1.6a8.191,8.191,0,0,0-1.719,2.266c0,.53-2.358,2.938-2.873,2.938a5.288,5.288,0,0,0-1.591,1.4c-3.147,3.582-2.875,6.793.289,3.452a7.684,7.684,0,0,0,1.7-2.344c0-.289.353-.53.806-.53.431,0,1.812-1.109,3.048-2.49a24.711,24.711,0,0,1,4.016-3.548,16.529,16.529,0,0,0,1.991-1.333,10.483,10.483,0,0,1,4.318-1.991,2.247,2.247,0,0,0,1.27-.336,4.494,4.494,0,0,1,1.828-.482,10.162,10.162,0,0,0,2.844-.853c2.969-1.493,10.036-1.283,11.064.338q.362.6.386-.289c.016-1.782,2.648-1.977,6.409-.466a6.665,6.665,0,0,0,1.233.368c.276.047,1.062.209,1.736.353,3.05.707,6.761,1.446,7.885,1.572a9.9,9.9,0,0,1,1.977.435,12.409,12.409,0,0,0,1.734.483l.978.19-.978.4c-5.782,2.361-17.44,13.375-16.718,15.786.5,1.67,1.173,2.057,1.491.851a1.383,1.383,0,0,1,1.177-1.092,4.129,4.129,0,0,0,2.135-1.476,6.675,6.675,0,0,1,1.474-1.479,14.093,14.093,0,0,0,2.2-1.893,22.946,22.946,0,0,1,4.849-3.325,30.778,30.778,0,0,0,3.129-1.7c.821-.8,4.047-1.637,6.074-1.559a8.574,8.574,0,0,1,4.812,1.671A9.153,9.153,0,0,1,337.5,42.1c0,.194.336.371.754.371a6.1,6.1,0,0,1,2.152.719c1.331.676,1.414.659,1.975-.558.561-1.254.29-2.058-1.185-3.294-.275-.225.062-.272.734-.08.674.161,1.575.353,1.977.4a2.345,2.345,0,0,1,1.239.658,4.23,4.23,0,0,0,1.972.822,37.427,37.427,0,0,1,3.692.978,37.962,37.962,0,0,0,8.095,1.926,8.561,8.561,0,0,1,2.939.916c1.54.754,2.071.818,2.377.353.207-.353.4-.4.4-.13.015.483,2.247,1.721,3.083,1.721.45,0,.819.271,2.974,2.148a12.761,12.761,0,0,0,2.839,1.816c.8.32,1.459.787,1.459,1.029s.326.431.709.431a10.264,10.264,0,0,1,3.081,2.2l2.377,2.2-2.951-.257c-1.624-.141-3.746-.351-4.691-.465a17.572,17.572,0,0,0-4.193.3c-1.365.259-3.581.565-4.929.659-5.348.4-17.116,4.239-19.735,6.44-2.327,1.958-2.006,2.664.884,1.846,12.2-3.5,14.5-3.982,20.474-4.287a56.219,56.219,0,0,0,7.82-.98,28.276,28.276,0,0,1,4.4-.753c.707,0,1.207-.274,1.207-.691,0-.386.661-.852,1.461-1.029a4.223,4.223,0,0,1,4.416,2.585c.275.612.821,1.108,1.188,1.108.387,0,1.88,1.381,3.342,3.051s3.1,3.437,3.625,3.951c.982.931.628,1.895-.834,2.2-.335.08-1.508.386-2.6.693-4.321,1.188-6.1,1.411-7.724.947-2.346-.676-2.635-.612-3.376.753-.882,1.654-1.441,1.622-8.508-.336a22.578,22.578,0,0,0-4.319-.659,18.883,18.883,0,0,1-3.693-.481c-1.445-.387-1.461-.368-.613.576a3.805,3.805,0,0,1,.852,1.318c0,.5-2.359.388-2.679-.127-.658-1.078-12.285-1.4-13.923-.387-.913.563-3.4.868-9.041,1.094-3.115.127-5.668.255-5.668.272s-1,.144-2.216.274c-3.195.337-8.864,1.99-9.841,2.874h-.019c-1.143,1.043-2.021.914-3.437-.482a6.63,6.63,0,0,0-2.6-1.5,4.949,4.949,0,0,1-1.99-.882,17.027,17.027,0,0,0-4.932-2.793,46,46,0,0,1-7.771-3.485,8.331,8.331,0,0,0-2.216-.932,45.721,45.721,0,0,1-4.446-1.766,55.047,55.047,0,0,0-11.26-3.4,10.885,10.885,0,0,1-2.889-.819,3.759,3.759,0,0,0-2.183-.306c-.643.114-1.173.049-1.173-.142,0-.451-2.087-1.06-4.431-1.3a18.162,18.162,0,0,1-3.2-.626c-5.316-1.669-23.489-2.633-33.08-1.766-2.439.225-5.1.4-5.924.418a7.617,7.617,0,0,0-3.05.882c-.883.482-1.7.692-1.843.466s-1.19-.1-2.316.29a5.23,5.23,0,0,1-2.248.481,4.709,4.709,0,0,0-2.022.676c-1.8.882-2.57.866-2.57-.016,0-.257.306-.338.676-.194.416.161.9-.336,1.3-1.3a22.818,22.818,0,0,1,1.779-3.229c.629-.929,1.029-1.685.867-1.685-.144,0,.4-.837,1.222-1.881a10.882,10.882,0,0,0,1.812-3.194c.194-.739.5-1.333.708-1.333.674,0,5.458-5.153,6.07-6.536.337-.738.753-1.348.929-1.348a6.494,6.494,0,0,0,1.736-1.575c4.9-5.492,7.469-7.914,9.38-8.83a4.964,4.964,0,0,1,2.488-.756c.175.176-.353.562-1.157.883-1.365.5-3.147,2.745-3.147,3.934,0,.737,1.99-.047,3.4-1.365a5.226,5.226,0,0,1,1.667-1.173,5.471,5.471,0,0,0,1.671-1.188c1.7-1.572,7.064-2.825,7.064-1.636,0,.225.192.289.435.142s1.4.386,2.587,1.19c2.167,1.478,4.077,1.892,4.609,1.027.161-.257-.95-1.414-2.476-2.569-3.161-2.377-3.082-2.6,1.318-4.19M195.6,56.912a7.173,7.173,0,0,0,.415-2.152,3.735,3.735,0,0,1,.546-1.992,4.094,4.094,0,0,0,.5-2.327c.034-1.125.26-2.04.531-2.04s.337-.146.16-.307c-.4-.416,1.012-3.147,1.641-3.147.254,0,.592-.561.768-1.237s.515-1.108.757-.947c.558.337.558-.4-.035-1.927a1.546,1.546,0,0,1,.5-2.087,2.767,2.767,0,0,0,.947-1.508,4.2,4.2,0,0,1,1.239-1.865,4.1,4.1,0,0,0,1.235-2.006c0-.418.21-.756.45-.756.257,0,.982-.837,1.606-1.846a28.676,28.676,0,0,1,8.511-7.821c2.938-1.574,3.18-1.493,1.33.386a5.733,5.733,0,0,0-1.54,2.232,1.27,1.27,0,0,1-.852,1c-1.01.385-3.581,2.94-3.581,3.565a2.555,2.555,0,0,1-.718,1.173c-.933.914-3.294,6.134-3.5,7.693a8.511,8.511,0,0,1-.641,2.231,21.142,21.142,0,0,0-.983,2.986c-.286,1.078-1.073,3.631-1.78,5.669a16.99,16.99,0,0,0-1.077,4.19c.115.274.353-.112.547-.867.242-.868.7-1.349,1.3-1.349a.855.855,0,0,0,.932-.883,4,4,0,0,1,.723-1.9,13.282,13.282,0,0,0,1.285-3.322,6.918,6.918,0,0,1,1.012-2.569,1.6,1.6,0,0,0,.432-1.22c0-.53.224-.964.5-.964s.5-.45.5-.98.21-.994.483-.994.8-.771,1.2-1.719.949-1.734,1.2-1.734c.275,0,.625-.45.8-1,.579-1.814,13.006-13.8,14.327-13.8a2.21,2.21,0,0,0,.947-.658c.9-.9,6.457-1.107,16.539-.626,6.6.306,8.879.642,8.879,1.3,0,.259-.274.468-.623.468a9.092,9.092,0,0,0-2.524.962,9.812,9.812,0,0,1-4.914.9,15.563,15.563,0,0,0-11.928,5.732c-1.319,1.525-2.684,2.762-3.038,2.762s-.642.21-.642.466a2.148,2.148,0,0,1-.627,1.124,7.867,7.867,0,0,0-1.848,3.42c0,.643-6.212,6.842-6.868,6.842-.227,0-.563.546-.724,1.235-.177.674-.578,1.238-.916,1.238-.8.015-5.3,5.986-5.3,7.031a1.474,1.474,0,0,1-.563,1.142c-.353.207-.448,1.22-.255,2.81.3,2.538-.791,6.07-1.686,5.508a2.908,2.908,0,0,0-1.861.481c-.789.4-1.541.628-1.674.5s-.515.1-.849.515a2.154,2.154,0,0,1-1.365.754,14.46,14.46,0,0,0-5.185,2.714c-.195.255-.353.287-.372.047,0-.24-.353-.127-.786.225a3.022,3.022,0,0,1-3.229.418c-.611-.37-.834-10.247-.253-11.176m-88.979,5.362c.5,1.318.722,2.505.5,2.65-.465.289-1.223-.676-.834-1.06.145-.13-.29-.818-.929-1.51a4.4,4.4,0,0,1-1.194-2.441c0-.642-.171-1.157-.382-1.157s-.418-.5-.468-1.108-.32-1.189-.607-1.268a1.021,1.021,0,0,1-.515-.932c0-2.008,2.585,1.992,4.431,6.824M91.851,173.635a36.424,36.424,0,0,0-4.318,5.411,10.4,10.4,0,0,1-1.751,2.456,3.134,3.134,0,0,0-.867,1.334c-.42,1.107-5.348,5.412-6.889,6.021a15.592,15.592,0,0,0-2.121,1.236,3.5,3.5,0,0,1-2.343.708c-.53-.13-.98,0-1,.321-.031.318-.466-.321-.979-1.4-.515-1.094-.947-1.67-.947-1.3s-.323.547-.709.4a.78.78,0,0,0-.994.465c-.145.42-.5.594-.771.435-.272-.177-.5-.111-.5.129s-.917.948-2.042,1.572h-.014c-1.831,1.028-6.36,1.816-6.969,1.205a3.588,3.588,0,0,0-1.428-.385,5.308,5.308,0,0,1-1.819-.5,1.271,1.271,0,0,0-1.348.224c-.591.5-.673.466-.431-.161.222-.561-.149-.866-1.336-1.123a13.53,13.53,0,0,1-2.376-.722,28.866,28.866,0,0,0-5.989-2.474,11.18,11.18,0,0,1-3.145-1.685,7.67,7.67,0,0,0-2.829-1.445c-.209.129-.387-.112-.387-.53s-.222-.773-.5-.773c-.867,0-7.389-6.678-7.389-7.545a.792.792,0,0,0-.736-.836.693.693,0,0,1-.739-.658,9.165,9.165,0,0,0-1.831-2.793,10.169,10.169,0,0,1-1.942-2.891,1.963,1.963,0,0,0-.883-1.173,1.7,1.7,0,0,1-.771-1.365,1.616,1.616,0,0,0-.5-1.235c-.628-.388-2.956-5.3-2.956-6.247a3.712,3.712,0,0,0-.724-1.67,4.418,4.418,0,0,1-.756-2.2,6.808,6.808,0,0,0-.962-2.794c-.546-.9-.752-1.655-.465-1.75.336-.1.3-.659-.065-1.622-.706-1.878-1.062-4.513-1.764-13.312a28.434,28.434,0,0,0-.565-4.192,12.334,12.334,0,0,1-.53-3.789,4.087,4.087,0,0,0-.868-2.343c-.5-.515-.561-.772-.175-.772.43,0,.512-.756.27-2.7-.157-1.48-.382-5.558-.5-9.074a44.835,44.835,0,0,0-.5-6.907,13.146,13.146,0,0,1-.547-3.13c-.111-1.445-.287-3.567-.4-4.721s-.065-2.088.112-2.088a61.453,61.453,0,0,0,.448-8.512c.165-8.606.53-10.709,2.828-15.912,2.007-4.528,2.392-5.459,2.409-5.908a3.856,3.856,0,0,1,.944-1.494,13.768,13.768,0,0,0,1.674-2.457,5.647,5.647,0,0,1,1.428-1.878,1.4,1.4,0,0,0,.674-1.06,1.18,1.18,0,0,1,.738-.947,5.487,5.487,0,0,0,1.735-1.895c.53-.883.979-1.429.979-1.174s.674-.48,1.48-1.6a9.825,9.825,0,0,0,1.491-2.539c0-.274.321-.5.741-.5.4,0,.737-.176.737-.4a6.855,6.855,0,0,1,2.086-1.895c1.962-1.365,2.2-1.429,3.487-.771a3.74,3.74,0,0,1,1.652,1.38,1.365,1.365,0,0,0,1.2.708c.724,0,.947-.386,1-1.737.1-2.824.145-2.936,1.173-3.1a10.941,10.941,0,0,0,1.735-.466c.4-.16.9-.337,1.108-.4a1.68,1.68,0,0,0,.483-.224c.591-.6,10.884-1.013,11.24-.466.225.368,1.3.561,6.407,1.2,2.808.353,4.094.692,4.576,1.189a1.214,1.214,0,0,0,1.153.192c.4-.145.676.065.676.513,0,.5.627.884,1.734,1.092.949.177,1.721.513,1.721.741s.483.545,1.074.738a7.768,7.768,0,0,1,3.26,2.262,5.757,5.757,0,0,0,1.895,1.108c1.123.356,5.409,4.449,7.836,7.484a30.935,30.935,0,0,0,2.826,3.084,8.674,8.674,0,0,1,1.942,2.891c.336.9.851,1.637,1.142,1.637s.8.608,1.14,1.364a16.741,16.741,0,0,0,2.729,4.48,3.831,3.831,0,0,1,.817,2.217c0,.722.195,1.315.436,1.315s.913,1.174,1.51,2.587c.595,1.429,1.27,3.034,1.493,3.58a14.942,14.942,0,0,1,.723,2.329,21.824,21.824,0,0,0,.851,2.715,13.206,13.206,0,0,1,.691,2.118c.082.4.515,1.958.979,3.451a24.93,24.93,0,0,1,.964,4.193,16.024,16.024,0,0,0,.657,3.21c.5,1.528,2.683,10.568,3.337,13.811.614,3.1.985,18.915.471,20.954-.131.546-.471,1.878-.739,2.954a18.376,18.376,0,0,0-.5,3.647,40.393,40.393,0,0,1-1.044,5.909,54.175,54.175,0,0,0-1.172,5.747,34.128,34.128,0,0,1-4.575,11.9,73.57,73.57,0,0,1-7.518,9.009m20.956.947a3.449,3.449,0,0,0-1.235,2.04,4.74,4.74,0,0,1-1.239,2.344c-1.428,1.589-1.315,1.044.612-3.276a17.028,17.028,0,0,0,1.283-3.789,7.427,7.427,0,0,1,1.737-2.988c1.671-1.908,4-8.027,4.014-10.55a3.158,3.158,0,0,1,.37-1.654,10.417,10.417,0,0,0,.382-3.565c.016-2.184.242-3.322.708-3.613a3.533,3.533,0,0,0,.787-2.361,16.068,16.068,0,0,1,.642-3.611c.58-1.8.546-2.763-.129-3.841-.3-.5-.753.05-1.636,1.976a25.277,25.277,0,0,0-1.366,3.4,12.955,12.955,0,0,1-1.172,2.587,10.578,10.578,0,0,0-1.173,3.436,9.915,9.915,0,0,1-1.428,3.582,21.408,21.408,0,0,0-2.152,4.8c-.482,1.559-1.062,2.843-1.3,2.843-.224,0-.416.3-.416.674a43.019,43.019,0,0,1-2.988,7.339c-.868,1.572-1.9,4.995-1.652,5.394.142.226.047.4-.226.4-.433,0-1.445,1.912-2.941,5.541-.365.915-.8,1.254-1.314,1.059a1.62,1.62,0,0,0-1.365.145,5.4,5.4,0,0,1-2.055.6l-1.431.142,1.093-1.4c.6-.771,2.09-2.891,3.292-4.7a28.3,28.3,0,0,1,2.683-3.615,1.937,1.937,0,0,0,.478-1.46,3.214,3.214,0,0,1,1.239-2.136c.674-.547,1.236-1.254,1.236-1.606a2.74,2.74,0,0,1,.722-1.429,4.283,4.283,0,0,0,.9-1.766,11.259,11.259,0,0,1,1.028-2.617c1.109-2.088,1.832-6.407,1.158-6.826-.3-.192-.226-.512.222-.851a1.885,1.885,0,0,0,.773-1.284,19.321,19.321,0,0,1,.868-4.915,12.344,12.344,0,0,0,.929-4.7,9.01,9.01,0,0,1,.646-2.955c.672-1.268,1.283-8.075,1.248-14.051-.027-6.952-.447-16.925-.734-17.759-.131-.417-.741-2.408-1.364-4.448s-1.223-4.028-1.35-4.433a16.978,16.978,0,0,1-.452-2.712,30.9,30.9,0,0,0-1-4.689,15.856,15.856,0,0,1-.722-3.084.282.282,0,0,0-.289-.368c-.192,0-.417-.821-.5-1.816a6.016,6.016,0,0,0-.53-2.344,27.565,27.565,0,0,1-2.3-6.695c-.306-1.655-.659-2.62-2.427-6.407-1.155-2.505-2.793-5.155-3.306-5.349-.241-.1-.435-.56-.435-1.042a3.815,3.815,0,0,0-.962-1.96,7.173,7.173,0,0,1-1.269-2.553c-.18-.788-.515-1.318-.772-1.157-.24.145-.451-.064-.451-.466a6.294,6.294,0,0,0-1.652-2.489c-.917-.962-1.559-1.846-1.443-1.96s-.229-.352-.757-.512a2.13,2.13,0,0,1-1.238-1.333c-.142-.565-.448-.933-.673-.821s-1.06-.416-1.879-1.17c-.819-.773-1.173-1.4-.8-1.4s-.24-.883-1.364-1.975c-1.926-1.862-1.992-2.5-.142-1.525a10.819,10.819,0,0,0,2.535.721,4.083,4.083,0,0,1,2.277,1.029,1.832,1.832,0,0,0,1.062.772c1.559,0,9.506,11.577,12.51,18.255.3.676.754,1.609.993,2.088a4.645,4.645,0,0,1,.436,1.832,1.932,1.932,0,0,0,1,1.491,1.814,1.814,0,0,1,.979,1.271c0,.513.336.641,1.125.447.994-.256,1.173-.015,1.717,2.346a23.482,23.482,0,0,1,.611,3.726c0,.61.225,1.092.5,1.092s.495.515.495,1.14a4.072,4.072,0,0,0,.724,2.1,6.876,6.876,0,0,1,.739,3.2,6.07,6.07,0,0,0,.435,2.714c.513.58,1.78,7.644,1.975,10.937.034.608.336,1.025.689.947.338-.082.451-.065.239.062-.557.307-.447,1.815.2,2.459.3.3.639,2.5.754,4.9.144,3.306.4,4.51,1.012,4.977.58.435.786,1.238.706,2.825-.126,2.344.642,4.433,1.446,3.919a1.011,1.011,0,0,0,.225-1.124,28.381,28.381,0,0,1-.467-4.03,22.345,22.345,0,0,0-.689-4.431,2.736,2.736,0,0,1-.257-1.591,17.007,17.007,0,0,0,.142-3.452c-.027-1.7-.077-3.6-.077-4.207s-.21-1.11-.448-1.11-.42-.495-.42-1.108c.066-2.663-.962-8.669-1.558-9.021a3.506,3.506,0,0,1-.447-2.088c0-2.118.784-1.621,1.154.723.321,2.152.691,2.618,2.056,2.618,1.525,0,1.99-.788,1.028-1.767a5,5,0,0,1-1.253-3.436,1.6,1.6,0,0,0,.016-.723c-.051-.129-.161-1.2-.274-2.393a5.974,5.974,0,0,0-.674-2.65,1.141,1.141,0,0,1-.241-1.14,2.872,2.872,0,0,0-.593-1.908,2.773,2.773,0,0,1-.563-1.96,2.017,2.017,0,0,0-.416-1.6c-1.239-1.622-.772-1.878.754-.42a5.038,5.038,0,0,1,1.476,2.008,1.964,1.964,0,0,0,.722,1.189c.4.32.691.739.659.916a5.812,5.812,0,0,0,.513,1.717,7.41,7.41,0,0,1,.578,2.281,2.2,2.2,0,0,0,.724,1.493c.4.338.691.756.657.932a6.386,6.386,0,0,0,.531,1.75,3.947,3.947,0,0,1,.355,2.055c-.115.322.2,1.045.718,1.607s.756,1.14.513,1.284c-.222.145-.24,1.205-.029,2.361.209,1.173.5,3.229.641,4.576.144,1.364.416,3.131.595,3.949.159.819.37,2.136.467,2.955a12.924,12.924,0,0,0,.719,2.955c.627,1.59.852,14.115.275,15.062a12.722,12.722,0,0,0-.463,3.5,8.564,8.564,0,0,1-.691,3.515,2.361,2.361,0,0,0-.58,1.478c0,.867-1.269,5.653-3.582,13.457-.561,1.895-1.092,3.952-1.187,4.561s-.227,1.6-.321,2.214a7.6,7.6,0,0,1-.741,2.184,4.964,4.964,0,0,0-.58,1.895,5.967,5.967,0,0,1-.706,2.136,83.11,83.11,0,0,0-3.516,9.441,8.5,8.5,0,0,1-1.027,2.218,3.766,3.766,0,0,0-.659,1.75,3.519,3.519,0,0,1-1.237,1.862M108.729,66.962c-.337.145-.5.466-.337.707.161.259.161.45.015.45-.13,0-.48-.417-.771-.947-.593-1.124-.034-1.671.994-.948.548.367.581.561.1.738m.626,2.152c.4,0,.739.192.739.45a4.737,4.737,0,0,0,.289,1.237c.3.787-.016.914-1.157.45-.867-.353-.772-2.136.129-2.136m58.5,69.113a9.742,9.742,0,0,1-1.609,5.572,3.526,3.526,0,0,0-.917,1.429,22.981,22.981,0,0,1-1.283,3.483,46.036,46.036,0,0,0-2.553,6.73l-.5,1.717-.049-1.621a6.073,6.073,0,0,1,.421-2.522,11.247,11.247,0,0,0,.623-3.162c.079-1.268.306-2.313.513-2.313a.282.282,0,0,0,.273-.37,29.267,29.267,0,0,1,.241-3.821c1.1-10.79,1.059-10.343.929-13.216-.079-1.606-.32-1.976-1.7-2.553-.877-.37-1.779-.513-1.987-.29-.643.628-1.928,7.837-2.15,12.108a89.876,89.876,0,0,1-1.205,12.3c-.325,1.912-.646,3.824-.691,4.242a13.48,13.48,0,0,1-.708,2.214c-1.4,3.437-2.986,8.641-2.986,9.8a2.116,2.116,0,0,1-.467,1.526,5.792,5.792,0,0,0-1.043,2.12,77.856,77.856,0,0,1-3.42,8.077,11.071,11.071,0,0,0-.773,2.633c-.255,1.348-.687,1.958-1.636,2.327-.723.274-1.655.692-2.087.9a9.539,9.539,0,0,1-3.119.4,6.6,6.6,0,0,0-2.905.482c-1.073.852-5.939,1.782-6.149,1.173-.129-.386-.531-.337-1.285.175v-.015c-.816.546-2.488.708-6.5.659a45.7,45.7,0,0,1-6.712-.451,2.627,2.627,0,0,0-1.6-.079c-.161.159-.29-.082-.29-.513a1.307,1.307,0,0,1,.432-1.045,13.217,13.217,0,0,0,1.5-3.245c.611-1.636,1.3-2.97,1.559-2.97s.465-.322.465-.706a.98.98,0,0,1,.4-.868c1.3-.53,5.476-10.2,5.73-13.229a5.912,5.912,0,0,1,.674-1.847,3.728,3.728,0,0,0,.547-1.736,6.689,6.689,0,0,1,.689-2.408,108.058,108.058,0,0,0,4.109-14.967,27.388,27.388,0,0,1,.963-4.094,13.883,13.883,0,0,0,.691-3.516,3.04,3.04,0,0,1,.741-2.023,2.5,2.5,0,0,0,.738-1.751,8.671,8.671,0,0,1,.533-2.52,17.01,17.01,0,0,0,.7-3.854,42.963,42.963,0,0,1,.742-5.01c.834-3.788.16-15.785-1-17.968-.306-.58-.447-1.155-.306-1.284a5.78,5.78,0,0,0-.4-2.394,5.967,5.967,0,0,1-.431-2.361,68.87,68.87,0,0,0-1.769-8.045,57.763,57.763,0,0,0-4.177-12.268c-1.22-2.438-2.213-4.223-2.247-3.951-.014.274-.515-.512-1.123-1.732-1.27-2.585-2.087-3.533-2.618-3.053-.224.195-.224.064-.034-.289.4-.691-1.542-3.05-2.5-3.05-.321-.016-.945-1.222-1.365-2.7a14.062,14.062,0,0,0-1.991-4.128c-.673-.788-1.124-1.54-.993-1.671s-.452-.994-1.3-1.925a34.9,34.9,0,0,1-2.823-3.647c-1.785-2.68-3.15-3.981-3.969-3.788-.48.111-.595-.16-.386-.964.226-.883-.16-1.525-1.784-3-2.056-1.88-2.068-1.911-1.057-2.747a5.29,5.29,0,0,0,1.331-1.717c.227-.58.867-.869,1.991-.869,1.349,0,2.088.451,3.873,2.344,2.6,2.762,5.828,5.557,6.421,5.557a.467.467,0,0,1,.416.5,23.151,23.151,0,0,0,3.5,4.031,22.651,22.651,0,0,1,4,4.946c.272.786.611,1.315.752,1.172.149-.127,1.11,1.075,2.17,2.714,2.106,3.26,3.084,3.917,4.208,2.794.674-.674.578-1.043-1.012-3.517a43.18,43.18,0,0,0-3.084-4.24,19.476,19.476,0,0,1-1.862-2.393c-2.858-4.782-5.7-8.4-6.665-8.443-.385-.016-.561-.161-.385-.337.436-.451-2.117-3.63-2.923-3.63-.371,0-.674-.177-.674-.385,0-.451,6.76-.42,7.21.031.192.194.623.1.978-.192.932-.772,3.983,1.476,5.526,4.077a22.973,22.973,0,0,0,1.91,2.8A2.305,2.305,0,0,1,131.8,47.2a3.445,3.445,0,0,0,1.221,1.782,3.374,3.374,0,0,1,1.235,2.442,2.294,2.294,0,0,0,.5,1.652,2.023,2.023,0,0,1,.5,1.479c0,.642.225,1.237.512,1.331a1.24,1.24,0,0,1,.658.9,27.876,27.876,0,0,0,1.269,3.952c.337.947.738,2.264.886,2.923.447,1.958,2.342,4.433,3.066,3.981.706-.431.53-1.975-.646-5.427-.416-1.22-1.122-3.772-1.57-5.668a16.636,16.636,0,0,0-1.4-4.159,2.957,2.957,0,0,1-.595-1.476,11.052,11.052,0,0,0-2.151-5.22,35.652,35.652,0,0,1-2.006-3.451,13.74,13.74,0,0,0-1.414-2.344c-.658-.8-.6-.868.867-.868.868,0,1.46.192,1.315.433-.226.368.563.964,1.687,1.269a3.848,3.848,0,0,1,3,2.359c.4.884,1.428,2.941,2.278,4.578s2.136,4.4,2.86,6.168a22.45,22.45,0,0,0,1.942,3.933,6.385,6.385,0,0,1,.914,2.617,21.9,21.9,0,0,0,1.558,4.529,15.076,15.076,0,0,1,1.254,3.34,1.947,1.947,0,0,0,.542,1.205c.356.368.372.641.019.851-.3.191-.336.818-.08,1.652,1.411,4.513,3.034,11.081,2.792,11.3-.142.162.066.948.486,1.751a4.239,4.239,0,0,1,.531,2.392c-.131.5-.05.963.187,1.044s.532.933.663,1.88c.48,3.452,1.3,6.455,1.7,6.2.176-.1.353.4.4,1.123.1,1.7.545,7,.882,10.405a7.042,7.042,0,0,0,.691,2.956,2.2,2.2,0,0,1,.624,1.268,1.54,1.54,0,0,0,1.255,1.139c1.043.145,1.074.016,1.043-5.348a55,55,0,0,0-.418-7.305,46.176,46.176,0,0,1-.657-4.769c-.356-3.951-1.445-9.939-1.913-10.405a1.924,1.924,0,0,1-.366-1.142,6.269,6.269,0,0,0-.707-2.136,4.664,4.664,0,0,1-.48-2.569,7.784,7.784,0,0,0-.579-3.209,5.311,5.311,0,0,1-.515-2.73c.16-.418.05-.741-.244-.741s-.416-.287-.287-.624a8.412,8.412,0,0,0-.706-3.116,11.853,11.853,0,0,1-.819-3.71,5.938,5.938,0,0,0-.689-2.665c-1.189-2.2-2.122-4.849-1.978-5.556.082-.338-.077-.612-.365-.612a.608.608,0,0,1-.515-.673,4.482,4.482,0,0,0-.965-1.91,13.844,13.844,0,0,1-1.78-3.645,14.1,14.1,0,0,0-1.43-3.149c-1.013-1.205-3.774-6.52-3.517-6.776.432-.433,4.189.448,4.769,1.14a1.98,1.98,0,0,0,1.269.707c.37,0,.947.608,1.268,1.348a31.951,31.951,0,0,0,4.448,6.262,6.491,6.491,0,0,1,1.173,1.976,5.947,5.947,0,0,0,.916,1.767,6.482,6.482,0,0,1,.978,2.2,4.8,4.8,0,0,0,.674,1.735A17.208,17.208,0,0,1,160.9,62.9a.945.945,0,0,0,.468.868,15.911,15.911,0,0,1,1.524,4.351,30.8,30.8,0,0,0,1.444,4.689,2.764,2.764,0,0,1,.435,1.235c.16,1.817.4,2.971.719,3.277a2.022,2.022,0,0,1,.339,1.157,10.426,10.426,0,0,0,.98,2.859,9.929,9.929,0,0,1,1,2.92,5.768,5.768,0,0,0,.641,2.12,9.407,9.407,0,0,1,.772,2.958c.256,3.081.355,3.707.642,4.205.768,1.268,1.654,18.483.963,18.483-.206,0-.4,1.172-.417,2.6-.033,1.411-.142,4.19-.241,6.164-.129,2.186-.015,3.567.287,3.567.273,0,.082.3-.416.676-.8.577-.932,1.411-.962,6.181-.032,4.014-.211,5.635-.691,5.925a1.114,1.114,0,0,0-.528,1.092m37.686,17.421a7.862,7.862,0,0,1-2.216.757,29.214,29.214,0,0,0-3.949,1.009,39.463,39.463,0,0,1-5,1.222,15.3,15.3,0,0,0-3.2.819,5.487,5.487,0,0,1-1.812.5,4.531,4.531,0,0,0-1.734.611c-1.188.626-2.443.947-5.765,1.525a8.717,8.717,0,0,0-1.237.272,3.283,3.283,0,0,1-.757.16,53,53,0,0,0-7.044,2.906h.016a13.073,13.073,0,0,1-3.276,1.158c-.933.095-1.14-.1-1.078-1.06.032-.658.244-1.2.431-1.2.211,0,.372-.386.372-.867a15.109,15.109,0,0,1,.738-3.085c2.745-8.381,3.337-10.437,3.742-13.069a41.7,41.7,0,0,1,1.17-5.187,37.815,37.815,0,0,0,1.013-3.9,10.74,10.74,0,0,1,.467-1.957c.543-.916.719-4.945.224-5.252-.371-.24-.382-.45-.034-.657.42-.272,1.334-11.5,1.158-14.578a2.686,2.686,0,0,1,.4-1.51,10.967,10.967,0,0,0,.548-3.807,14.814,14.814,0,0,1,.435-3.837c.417-.661.046-3.036-.417-2.763-.176.111-.355-2.713-.4-6.295-.062-5.637-.463-8.735-1.491-11.657a14.665,14.665,0,0,1-.432-2.473c-.1-.949-.4-1.8-.692-1.88-.274-.1-.495-.706-.495-1.331a2.017,2.017,0,0,0-.452-1.446,8.111,8.111,0,0,1-1.062-2.859,36.64,36.64,0,0,0-1.107-3.837,13.158,13.158,0,0,1-1.028-3.453c-.673-3.033-.868-3.468-1.4-3.131-.338.21-.4.1-.177-.272.531-.836-.786-4.977-1.591-4.977-.352,0-.513-.21-.352-.482a2.129,2.129,0,0,0-.321-1.6,3.009,3.009,0,0,1-.513-1.494c.049-.195-.161-.368-.481-.368s-.432-.13-.255-.307-.082-.9-.581-1.606a43.851,43.851,0,0,1-2.309-4.124,9.35,9.35,0,0,0-1.8-2.844c-.227,0-.387-.3-.387-.692,0-.5.578-.687,2.088-.641a13.039,13.039,0,0,0,2.584-.1c1.431-.465,4.239.05,5.045.9,2.471,2.667,6.727,13.634,7.288,18.74a3.006,3.006,0,0,0,.934,1.8,1.784,1.784,0,0,1,.8,1.074c0,.29.45.627.979.772.658.161,1,.016,1-.467,0-.4.177-.608.4-.481.226.146.32-.451.242-1.316a66.842,66.842,0,0,0-1.624-9.683,21.486,21.486,0,0,1-1.991-5.236c0-.4-.241-.721-.546-.721-.288,0-.418-.322-.276-.707a4.05,4.05,0,0,0-.286-2.216c-.787-2.087-.255-2.441,4.158-2.73,3.035-.209,3.824-.112,4.047.467a40.152,40.152,0,0,1,.982,8.236c.063,2.1.35,3.115,1.187,4.063.593.708.881,1.269.611,1.269-.515,0-.6.707-.5,4.915a6.323,6.323,0,0,0,.481,2.969c.884.546,1.077,2.778.287,3.438a2.346,2.346,0,0,0-.768,1.54,1.534,1.534,0,0,1-.42,1.155c-.5.3-.159,2.73.486,3.55a12.793,12.793,0,0,1,.383,4.192c-.046,3.884.142,5.042,1.508,9.33a47.765,47.765,0,0,1,1.93,8.382c.015,1.4.385,2.537.931,2.89a.7.7,0,0,1,.161.994,4.137,4.137,0,0,0-.034,2.361,7.518,7.518,0,0,1-.014,3.115,3.812,3.812,0,0,0-.256,1.575c.337.353.867,11.24.753,15.206-.145,5.235-.257,6.583-.577,7.177a14.255,14.255,0,0,0-.336,3.132,8.92,8.92,0,0,1-.531,3.211,13.892,13.892,0,0,0-1.029,3.421,9.3,9.3,0,0,1-1.574,3.852c-1.236,1.253-1.59,4.866-.625,6.715a6.252,6.252,0,0,1,.7,1.957c.017.546.485.661,2.364.611.187,0,.365-.417.365-.932a2.223,2.223,0,0,1,.372-1.316c.191-.194.37-.112.37.192s.32.435.737.275a2.388,2.388,0,0,1,1.592.095,16.425,16.425,0,0,0,3.581.561,28.554,28.554,0,0,1,4.349.627,5.944,5.944,0,0,0,2.473.226c.45-.13.161.112-.657.5m16.346-35.164c-.035.721-.211,1.234-.4,1.107-.291-.177-.788,1.205-2.347,6.472a24.529,24.529,0,0,0-1.124,6.264,6.18,6.18,0,0,1-.291,2.07,13.667,13.667,0,0,0-.416,3.147,34.732,34.732,0,0,1-.463,3.982,10.71,10.71,0,0,0-.131,3.869,5.9,5.9,0,0,1-.287,1.751h-.034c-.3,1.125-.657,1.364-1.925,1.348a5.362,5.362,0,0,1-2.779-.947c-1.2-.932-2.763-1.253-8.623-1.766a11.18,11.18,0,0,1-3.309-.611,4.291,4.291,0,0,1,.1-2.328,7.359,7.359,0,0,0,.21-2.809,1.086,1.086,0,0,1,.5-1.236c1.074-.611,1.7-9.907,1.125-16.925-.146-1.766-.307-3.324-.37-3.453a14.152,14.152,0,0,1-.046-2.183,5.8,5.8,0,0,0-.353-2.471,11.381,11.381,0,0,1-.486-3.422,14.127,14.127,0,0,0-.366-3.34,25.51,25.51,0,0,1-.485-4.609,28.8,28.8,0,0,0-.947-6.277,13.3,13.3,0,0,1-.738-3.23c-.018-.61-.195-1.107-.4-1.107s-.354-.948-.338-2.088a11.173,11.173,0,0,0-.628-3.757,4.655,4.655,0,0,1-.448-2.3,1.1,1.1,0,0,0-.226-1.093,8.052,8.052,0,0,1-.769-3c-.319-2.778.256-4.047,1.862-4.047a2.047,2.047,0,0,0,1.51-.931c.32-.513.849-.836,1.187-.706a.8.8,0,0,0,.933-.291,1.1,1.1,0,0,1,.8-.53c.565,0,.08,2.312-.772,3.71-.928,1.5-1.426,4.112-1.364,7.131.034,1.6-.177,2.858-.53,3.083-.433.3-.4.545.165,1.01.9.739,1.074,2.072.513,4.143a3.09,3.09,0,0,0-.131,1.863,3.281,3.281,0,0,1,.451,1.381,3.235,3.235,0,0,0,.657,1.558,2.774,2.774,0,0,1,.466,1.621c0,1.365,1.253,1.51,1.943.225.674-1.285.658-7.481-.032-7.481-.385,0-.287-1.64.129-1.975a11.756,11.756,0,0,0,.595-3.456c.272-2.986,1.14-6.773,1.316-5.665.031.274.176,1.253.287,2.182a6.882,6.882,0,0,0,.435,1.895,2.4,2.4,0,0,1-.241,1.4c-.239.658-.256,1.188-.034,1.188.647,0,1.16,6.6,1.028,13.071-.287,13.844.05,19.991,1.142,20.667,1.446.916,1.992-.387,2.168-5.237.1-2.519.352-6.695.6-9.265.495-5.314.43-17.758-.1-18.61a.643.643,0,0,1,.16-.882c.319-.194.433-1.51.275-3.438-.242-3-.195-3.195,1.381-4.911s1.621-1.9,1.25-4.3c-.482-2.989-.532-3.036-2.391-3.036-1.689,0-3.359,1.108-2.476,1.654.339.209.035.45-.722.595-1.574.29-1.735.049-1.22-1.847a3.768,3.768,0,0,1,2.281-2.393c1.027-.513,2.427-1.2,3.1-1.541,1.621-.818,5.1-1.443,4.752-.851a3.261,3.261,0,0,0,.112,1.878,19.007,19.007,0,0,1,0,5.122c-.224,2.041-.531,7.466-.691,12.044s-.466,9.812-.691,11.594c-.241,2.056-.209,3.486.095,3.868.257.34.29.643.064.643-.239.016.115.257.788.53.836.323,1.284.323,1.4-.034a.844.844,0,0,1,.768-.527c.756,0,1.864-2.844,1.189-3.068-.674-.241-.642-1.589.337-10.5.465-4.333.932-8.879,1.013-10.1s.417-3.741.722-5.588c.578-3.518.049-6.746-1.105-6.746-.679,0-.052-.657.752-.8a15.872,15.872,0,0,0,2.426-.883c1.009-.418,1.894-.611,1.972-.418.451,1.074-.288,20.618-.834,22.338-.352,1.107,1.7,7.464,2.65,8.172,1.107.834,2.489.24,3.339-1.43.741-1.413.724-1.526-.3-2.313-.818-.61-1.173-1.572-1.459-3.981a10.372,10.372,0,0,1,.061-4.048,21.812,21.812,0,0,0,.611-4.992,25.808,25.808,0,0,1,.4-4.545c.225-.4.451-3.42.595-8.335l.066-1.975h2.2a6.473,6.473,0,0,0,2.454-.289,5.072,5.072,0,0,1,2.282-.08l2.023.207-.079,2.3a9.637,9.637,0,0,1-.37,2.792,18.07,18.07,0,0,0-.111,4.16c.094,2.247-.05,3.933-.387,4.335-.368.435-.385.836-.065,1.157.3.322.241,1.878-.21,4.545-.381,2.232-.786,5.186-.879,6.567-.352,4.511,2.182,5.749,3.194,1.59.272-1.174.868-3.132,1.284-4.353a41.325,41.325,0,0,0,1.06-8.027c.161-3.2.478-5.925.722-6.071a5.96,5.96,0,0,0,.433-2.825,17.173,17.173,0,0,1,.628-4.288c.56-1.637.689-1.719,2.808-1.671,4.209.13,4.369.162,4.322,1.06a83.832,83.832,0,0,0,3.066,12.445c.738,1.189,2.374-.771,2.761-3.26.42-2.811-1.46-9.073-2.84-9.442a1.232,1.232,0,0,1-.9-1.124c0-1,1.255-.963,6.165.16,1.35.306,2.587.6,2.714.612,4.69,1,6.471,1.493,7.885,2.183a12.738,12.738,0,0,0,3.952.98,4.682,4.682,0,0,1,2.6.689c.257.417.481.386.818-.129.368-.577.6-.593,1.236-.065.415.355.771.515.771.368a8.382,8.382,0,0,1,2.778,1.175,19.282,19.282,0,0,0,4.8,1.78,9.089,9.089,0,0,1,3,.964,24.265,24.265,0,0,0,4.3,1.7c1.867.562,3.374,1.269,3.374,1.575,0,.289.145.386.321.191.192-.175.691-.015,1.105.371a3.959,3.959,0,0,0,1.526.866,2.675,2.675,0,0,1,1,.417,13.6,13.6,0,0,0,4.19,1.976.946.946,0,0,1,.818.37,11.277,11.277,0,0,0,2.138,1.734c1.093.756,2.343,1.654,2.81,2.007.881.676,1.781,3.374,1.075,3.244-1.494-.272-2.152.13-2.152,1.285,0,1.541-1.143,2.038-2.6,1.14-1.557-.98-6.746-.834-7.484.209-.512.689-.832.626-2.889-.658a10.708,10.708,0,0,0-3.07-1.448,4.222,4.222,0,0,1-1.6-.448,27.172,27.172,0,0,0-5.862-1.972,1.811,1.811,0,0,1-.674-.034,41.232,41.232,0,0,0-6.648-.595c-2.747-.064-10.663,1.364-11.078,1.991a4.3,4.3,0,0,1-2.186.482,12.329,12.329,0,0,0-3.952,1c-1.122.513-3.145,1.318-4.491,1.782-3.613,1.254-5.19,1.942-5.19,2.282,0,.159-.706.287-1.572.287s-1.637.226-1.735.481c-.1.272-.769.4-1.511.3a2.875,2.875,0,0,0-2.439.819,3.637,3.637,0,0,1-1.754,1.028,1.985,1.985,0,0,0-1.12.4,13.721,13.721,0,0,1-2.682,1.237c-2.313.866-9.055,6.872-8.463,7.531.177.209.082.224-.192.065s-1.494.688-2.682,1.893a10.248,10.248,0,0,1-2.618,2.183c-.255,0-.337.353-.176.772a.78.78,0,0,1-.465,1.044c-1.174.447-4.223,7.578-4.337,10.1m23.186-8.463c-.435,0-.593-.4-.452-1.139s1.16-1.7,2.9-2.747c2.84-1.686,4.511-2.217,6.727-2.136a2.191,2.191,0,0,0,1.621-.4,2.421,2.421,0,0,1,1.719-.483,2.347,2.347,0,0,0,1.878-.787c.355-.642.5-.658.707-.112.16.433,1,.676,2.3.659,1.109-.016,2.022.176,2.022.417s.644.322,1.415.16a2.588,2.588,0,0,1,1.895.21,3.976,3.976,0,0,0,1.667.706c.663.114,2.73.642,4.625,1.173a13.469,13.469,0,0,0,3.823.722c.209-.127.386-.032.386.21,0,.4,1.8,1.2,7.449,3.322a8.31,8.31,0,0,1,2.3,1.349,3.076,3.076,0,0,0,1.525.852.542.542,0,0,1,.578.45c0,.257.516.643,1.156.868,1.38.5,4.961,3.309,6.711,5.266,3.661,4.127,3.632,4.064,5.715,7.934a14.067,14.067,0,0,1,1.463,3.949,33.011,33.011,0,0,0,.887,4.225c.38,1.49.96,4.5,1.246,6.662.31,2.168.808,5.732,1.11,7.9a35.129,35.129,0,0,1,.416,5.909c-.079,1.092-.16,3.485-.175,5.316a10.824,10.824,0,0,1-.289,3.324,17.371,17.371,0,0,0-.16,4.062c.082,3.5-.255,8.9-1.494,23.815a24.934,24.934,0,0,1-1.077,5.316,8.47,8.47,0,0,0-.58,3.309c.149.53.016.914-.271.851s-.769.674-1.078,1.621a16.282,16.282,0,0,1-1.138,2.8,4.839,4.839,0,0,0-.61,1.91c0,1.315-2.956,7.145-5.11,10.082-2.408,3.276-2.745,3.632-4.155,4.384-.594.325-1.094.917-1.094,1.32a.732.732,0,0,1-.738.721c-.416,0-.738.225-.738.483a.5.5,0,0,1-.482.5,6.332,6.332,0,0,0-1.991,1.479,5.39,5.39,0,0,1-2.231,1.494c-.406,0-.726.176-.726.416,0,.642-6.437,3.839-8.637,4.272-1.093.21-2.2.433-2.473.482-1.284.257-9.185-3.535-10.614-5.106a11.987,11.987,0,0,0-2.47-1.752c-2.99-1.636-9.96-9.2-11.677-12.669a66.122,66.122,0,0,1-3.821-8.832,26.18,26.18,0,0,0-1.06-2.81,23.609,23.609,0,0,1-1.188-4.11,16.5,16.5,0,0,0-.738-2.955.558.558,0,0,1,.24-.738,5.688,5.688,0,0,0,1.253-1.879,41.14,41.14,0,0,1,4.8-7.707,8.939,8.939,0,0,0,1.655-2.778c.161-.658.53-1.2.817-1.2s.4-.112.258-.257c-.142-.16.3-.9,1.028-1.669a29.1,29.1,0,0,0,2.409-3.053c.626-.931,2.231-3.226,3.58-5.122a20.771,20.771,0,0,0,2.459-4,3.065,3.065,0,0,1,1.01-1.46,22.365,22.365,0,0,0,2.748-3.774c.96-1.575,1.94-2.86,2.2-2.86s.418-.159.353-.368c-.1-.352,1.012-2.553,2.411-4.817a22.22,22.22,0,0,0,1.155-2.214,10.105,10.105,0,0,1,1.187-1.977,37.3,37.3,0,0,0,2.488-4.19,38.089,38.089,0,0,1,2.542-4.223,3.809,3.809,0,0,0,.689-2.1c0-.724.19-1.318.416-1.318.513,0,3.518-6.583,3.518-7.691a2.685,2.685,0,0,1,.736-1.51,2.082,2.082,0,0,0,0-3.146c-.626-.515-.962-.433-1.975.512a6.494,6.494,0,0,0-1.49,2.04c-.165.513-.548.917-.867.917s-1.592,2.12-2.8,4.72a34.928,34.928,0,0,1-2.793,5.2,10.169,10.169,0,0,0-1.478,2.924c-.483,1.349-1.092,2.442-1.35,2.442s-.336.16-.141.336c.176.176.011.673-.353,1.108a43.912,43.912,0,0,0-2.8,4.866,29.9,29.9,0,0,1-2.538,4.35,1.275,1.275,0,0,0-.4.98,4.656,4.656,0,0,1-1.238,2.071,4.713,4.713,0,0,0-1.233,1.945c0,.353-.192.624-.436.624-.385,0-1,1.285-1.281,2.715-.245,1.22-.9,2.214-1.464,2.214-.337,0-.883.611-1.22,1.365a8.956,8.956,0,0,1-1.318,2.087,19.6,19.6,0,0,0-3.661,5.428c-.978,2.52-1.976,3.952-2.775,3.952-.371,0-.9.56-1.158,1.251a10.308,10.308,0,0,1-2.793,3.854,17.107,17.107,0,0,0-2.186,3.227c-1.058,2.04-1.14,2.1-1.541,1.044a3.622,3.622,0,0,1-.129-1.992,1.737,1.737,0,0,0-.37-1.543,5.155,5.155,0,0,1-.724-2.633,25.724,25.724,0,0,0-1.012-6.165c-.576-1.526-1.089-5.3-1.394-10.184a58.947,58.947,0,0,0-.724-6.355,39.177,39.177,0,0,1-.593-4.771c-.051-1.268-.21-2.232-.352-2.135-.146.081-.224-1.092-.146-2.633.126-3.261.641-13.153.852-16.348a21.535,21.535,0,0,1,2.331-7.594,8.429,8.429,0,0,0,.721-2.473,5.015,5.015,0,0,1,.832-2.234,5.864,5.864,0,0,0,1.381-3.114c-.044-.209.26-.37.662-.37s.738-.448.738-1a4.71,4.71,0,0,1,1.494-2.392c1.542-1.476,1.958-3.034.8-3.034M229.516,207.29a4.292,4.292,0,0,1-.933-3.275c.111-.932.049-1.766-.129-1.831a7.228,7.228,0,0,1-.593-2.841c-.322-3.55-1.4-7.129-1.9-6.329-.2.323-.254-.321-.092-1.444a8.087,8.087,0,0,0-.095-2.94c-.548-1.315-1.254-8.685-1.319-13.7A18.042,18.042,0,0,0,223.67,170c-.8-2.166-1.269-11.546-.612-12.348.757-.948.757-2.439,0-2.457-.543-.016-.737-.6-.718-2.231.011-3.856,1.231-14.036,1.717-14.517a3.529,3.529,0,0,0,.48-2.007,3.5,3.5,0,0,1,.595-2.118c.318-.323.4-.6.16-.6-.222,0-.079-.383.32-.867a18.787,18.787,0,0,0,1.867-4.063,16.835,16.835,0,0,1,1.475-3.451,33.044,33.044,0,0,0,2.283-4.078c1.827-3.646,4.862-7.709,5.361-7.212a7.163,7.163,0,0,1-.482,2.634,16.536,16.536,0,0,0-.726,3.517,2.971,2.971,0,0,1-.623,1.766c-.707.754-1.99,5.106-1.927,6.567a2.866,2.866,0,0,1-.626,1.719c-.8.914-1.3,3.084-1.51,6.632a12.792,12.792,0,0,1-.883,4.044c-.578,1.125-.706,3.262-.613,10.118a82.612,82.612,0,0,0,.4,9.154,35.32,35.32,0,0,1,.577,5.62c.29,4.961,1.048,10.759,1.6,12.3a9.871,9.871,0,0,1,.179,2.714,24.826,24.826,0,0,0,.643,5.171c.4,1.767.879,4.769,1.074,6.663.177,1.895.4,4.014.5,4.689.275,2.087-.366,5.926-.994,5.926h.016c-.321,0-1.028,1.253-1.574,2.775l-1,2.8Zm89.779.851a25.755,25.755,0,0,1-2.106,5.879,8.548,8.548,0,0,0-1.154,2.344c-.034.882-2.381,5.411-3,5.8a3.752,3.752,0,0,0-.964,1.975c-.385,1.8-1.009,2.667-5.3,7.387-1.656,1.831-3.294,3.34-3.63,3.34a4.042,4.042,0,0,0-1.8,1.108c-2.12,1.991-4.785,4.175-4.785,3.934a8.144,8.144,0,0,0-2.1,1.476,26.5,26.5,0,0,1-3.648,2.522,5.208,5.208,0,0,0-1.735,1.205c-.242.594-6.294,2.537-8.3,2.648a7.914,7.914,0,0,0-2.217.37v-.016c-1.762.964-8.446-.08-12.475-1.942a5.2,5.2,0,0,0-2.553-.706c-.24.144-.58-.192-.752-.741a1.449,1.449,0,0,0-1.272-.979c-.53,0-.949-.207-.949-.465s-.448-.386-.993-.29c-.55.114-.982,0-.982-.224,0-.45-6.294-3.71-7.16-3.71a4.059,4.059,0,0,1-1.64-1.364c-.64-.739-1.363-1.236-1.6-1.077-.256.144-.451.08-.451-.146,0-.61-4.51-5.057-5.14-5.073-.286,0-1.027-.722-1.635-1.6-.6-.867-1.652-2.232-2.343-3.019a5.408,5.408,0,0,1-1.238-2.023,9.012,9.012,0,0,0-1.48-2.634,8.394,8.394,0,0,1-1.491-2.73,4.481,4.481,0,0,0-.979-1.926,4.453,4.453,0,0,1-.978-2.072,6.731,6.731,0,0,0-.788-2.3c-1-1.942-.612-2.3,1.059-.979,1.8,1.4,2.393,1.318,3.856-.546,1.138-1.445,1.268-1.51,1.542-.612a13.031,13.031,0,0,0,.768,1.817,5.293,5.293,0,0,1,.466,2.1c0,.676.194,1.237.433,1.237s1.062,1.269,1.847,2.8c2.311,4.593,13.134,15.913,15.238,15.943a6.773,6.773,0,0,1,2.138,1.5,23.6,23.6,0,0,0,3.934,2.762,21.659,21.659,0,0,1,2.774,1.719,2.07,2.07,0,0,0,1.223.448,6.341,6.341,0,0,1,2.2.754c1.54.8,7.114,1.269,7.325.61a2.058,2.058,0,0,1,1.315-.61,16.513,16.513,0,0,0,6.214-2.472,28.588,28.588,0,0,1,2.953-1.88,17.949,17.949,0,0,0,2.8-1.945,20.112,20.112,0,0,1,3.084-2.118c.977-.531,1.766-1.123,1.766-1.331s.237-.387.53-.387c.719,0,4.9-3.451,4.9-4.046,0-.628,3.518-5.974,4.238-6.424a5.014,5.014,0,0,0,1.189-1.845c.336-.821.771-1.5.979-1.5.4,0,2.748-7.4,2.554-8.077a1.931,1.931,0,0,1,.577-1.235,34.241,34.241,0,0,0,2.489-6.119c1.334-3.967,1.781-6.15,1.8-8.624,0-1.83.242-5.989.513-9.231.275-3.261.6-9.249.724-13.328.127-4.064.37-8.847.546-10.6.42-4.192.355-7.949-.192-9.972a26.417,26.417,0,0,1-.565-4.465,23.612,23.612,0,0,0-.591-4.448,25.552,25.552,0,0,1-.738-3.821,23.316,23.316,0,0,0-.726-3.646,9.816,9.816,0,0,1-.465-2.393c0-.963-.9-3.341-2.309-6.039-.418-.817-1.223-2.376-1.784-3.45-1.414-2.715-11.482-12.59-12.831-12.59a6.328,6.328,0,0,1-2.025-1.157,22.923,22.923,0,0,0-4.24-2.279c-1.49-.611-3.643-1.526-4.8-2.04a10.955,10.955,0,0,0-2.813-.932,1.249,1.249,0,0,1-.978-.433,4.278,4.278,0,0,0-1.88-.8c-.883-.192-1.945-.467-2.344-.595a11.987,11.987,0,0,0-1.737-.3,2.23,2.23,0,0,1-1.231-.4,5.093,5.093,0,0,0-1.978-.611c-.947-.177-3.16-.608-4.93-1a10.228,10.228,0,0,0-3.9-.3,3.383,3.383,0,0,1-2.056,0,2.968,2.968,0,0,0-1.589-.176,9.846,9.846,0,0,1-2.618.465c-4.61.482-9.2,1.863-9.456,2.844a.841.841,0,0,1-1.159.658,1.223,1.223,0,0,0-1.2.207,1.566,1.566,0,0,1-1.222.451c-.526,0-.962.192-.962.417s-.565.658-1.238.979-1.222.4-1.222.192c.035-.61,1.3-2.071,1.576-1.814.337.337,3.837-1.7,3.837-2.232,0-.209,1.062-.659,2.344-1.012a22,22,0,0,0,3.856-1.5,26.784,26.784,0,0,1,4.43-1.652c1.621-.45,3.277-.964,3.678-1.125.417-.174.851-.353.993-.4.823-.275,2.474-.965,4.193-1.752a24.878,24.878,0,0,1,7.515-2.056c.612-.015,1.11-.145,1.11-.32a20.8,20.8,0,0,1,4.943-.307c2.956,0,4.929-.192,4.929-.5.016-.289.161-.272.37.049a5.925,5.925,0,0,0,2.808.868,7.726,7.726,0,0,1,2.941.817,1.959,1.959,0,0,0,1.22.482c.932,0,7.984,3.421,8.847,4.289a2.32,2.32,0,0,0,1.368.657c.383,0,.687.177.687.4,0,.241,1.028.948,2.267,1.589,2.071,1.06,5.633,4.19,5.633,4.962a10.91,10.91,0,0,0,1.719,2.2,8.716,8.716,0,0,1,1.736,2.312,11.639,11.639,0,0,0,2.1,2.649,20.736,20.736,0,0,1,4.625,10.294,8.825,8.825,0,0,0,.9,3,10.367,10.367,0,0,1,1.009,3.325c.195,1.269.577,2.312.834,2.312.273,0,.388.275.256.61-.224.612.149,3.548,1.142,9.121.274,1.572.561,3.18.643,3.6a4.131,4.131,0,0,0,.466,1.3c.643,1.027.608,30.861-.035,32.356a22.335,22.335,0,0,0-.623,5.667,52.747,52.747,0,0,1-.788,7.95,15.067,15.067,0,0,0-.45,4.368,3.194,3.194,0,0,1-.416,2.04c-1.154,2.151-1.928,4.528-1.606,4.849.175.177.1.578-.161.883a23.157,23.157,0,0,0-1.444,4.624m10.067,11.918c-.433-.356-.787-.291-1.236.239a2.564,2.564,0,0,1-1.785.756c-.641,0-1.169.192-1.169.432s-.611.6-1.366.772h.016a6.76,6.76,0,0,0-2.311,1.173c-.9.787-.917.771-.547-.161a6.576,6.576,0,0,0,.433-1.847c.031-.48.192-.867.386-.867.961,0,3.678-7.37,3.8-10.358a20.457,20.457,0,0,1,1.045-4.687,61.153,61.153,0,0,0,2.774-11.1c.388-5.476.629-7.884.822-8.255a14.883,14.883,0,0,0,.371-3.1c.35-6.792.4-7.643.48-7.643,1.124,0,.385-25.514-.98-34.042-.56-3.516-1.123-7.179-1.268-8.141-.126-.947-.8-3.934-1.508-6.648a63.354,63.354,0,0,1-1.43-6.906c-.225-2.649-1-5.554-1.67-6.389-.433-.515-.418-.723.061-.883s.5-.386.082-.916a7.154,7.154,0,0,1-.914-2.361,13.5,13.5,0,0,0-1.3-3.276c-.868-1.445-.884-1.639-.144-1.91.769-.306,3.127,1.443,3.162,2.327a5.391,5.391,0,0,0,.931,1.735,14.687,14.687,0,0,1,1.587,3.532,16.222,16.222,0,0,0,1.785,3.884,7.019,7.019,0,0,1,1.125,2.251,16.1,16.1,0,0,0,1.429,3.356,22.783,22.783,0,0,1,1.734,4.478,14.857,14.857,0,0,0,1.109,3.292,16.64,16.64,0,0,1,1.04,4.755,9.138,9.138,0,0,0,.662,3.42c.222.127.271.9.111,1.7a3.63,3.63,0,0,0,.528,2.7,12.4,12.4,0,0,1,1.012,5.123c.244,4.672.722,7.468,1.3,7.468.227,0,.338,3.034.244,6.76a42.009,42.009,0,0,0,.244,7.869c.221.609.255,1.219.045,1.333-.289.191-.289,4.318.016,13.633a18.2,18.2,0,0,1-.565,3.693c-.913,3.821-2.038,9.234-2.182,10.645a5.882,5.882,0,0,1-.593,1.976,4.59,4.59,0,0,0-.513,1.926,37.4,37.4,0,0,1-2.585,10.856,5.847,5.847,0,0,0-.3,1.268,5.449,5.449,0,0,1-.823,1.736,11.589,11.589,0,0,0-1.17,2.423c-.563,1.877-1.266,2.569-1.975,1.977m64.745-50.487a3.162,3.162,0,0,0-.37,1.845,12.683,12.683,0,0,1-.448,3.069c-.242.784-.933,3.083-1.541,5.123a28.948,28.948,0,0,1-1.479,4.189,7.556,7.556,0,0,0-.724,2.152c-.221,1.06-.718,1.767-1.331,1.928-.707.176-.9.545-.707,1.316a6.629,6.629,0,0,1-.948,3.467,7.522,7.522,0,0,0-1.01,2.6c.111.127-.144.626-.562,1.123a9.234,9.234,0,0,0-1.365,2.618,13.626,13.626,0,0,1-1.67,3.131c-.593.769-2.1,2.793-3.34,4.5a13.225,13.225,0,0,1-2.456,2.921,39.137,39.137,0,0,1,2.083-5.572c1.255-2.956,2.588-6.487,2.99-7.852a23.972,23.972,0,0,1,1.4-3.71,32.544,32.544,0,0,0,1.461-3.451c1.911-5.3,2.232-6.28,2.408-7.179a11.685,11.685,0,0,1,.463-1.686,45.165,45.165,0,0,0,1.222-6.421,135.566,135.566,0,0,0,.066-14.662c-.21-1.526-1.687-1.429-3.084.192a2.989,2.989,0,0,0-.786,3.2,4.693,4.693,0,0,1,.08,2.152,6.387,6.387,0,0,0-.45,2.152c-.1,1.043-.563,4.285-1.044,7.177s-.691,5.394-.452,5.539.034.595-.463,1c-.482.418-.611.6-.273.418.339-.161.611-.065.611.209a.5.5,0,0,1-.45.53c-.257,0-.595.659-.788,1.476-.177.821-.531,1.478-.8,1.478s-.355.21-.21.45a5.867,5.867,0,0,1-.736,2.715,6.03,6.03,0,0,0-.742,2.712c.145.242-.064.709-.463,1.044a2.069,2.069,0,0,0-.741,1.285,10.787,10.787,0,0,1-.949,2.779,34.017,34.017,0,0,0-1.266,3.211,8.9,8.9,0,0,1-1.414,2.456,5.928,5.928,0,0,0-1.2,2.811,12.343,12.343,0,0,1-1.028,3.452,23.7,23.7,0,0,0-1.734,4.336,4.65,4.65,0,0,1-.821,1.252,7.125,7.125,0,0,0-1.094,1.735,1.4,1.4,0,0,1-1.2.851,3.845,3.845,0,0,0-2.021,1.219c-.642.677-1.3,1.19-1.493,1.142a31,31,0,0,0-5.509,2.5,26.779,26.779,0,0,1-5.172,2.1,15.812,15.812,0,0,0-3.21,1.464,10.48,10.48,0,0,1-2.956,1.188,4.473,4.473,0,0,0-2.374,1.3c-.353.5-.867.916-1.14.916a7.869,7.869,0,0,0-2.3,1.235A7.313,7.313,0,0,1,338,229.933a6.646,6.646,0,0,0-2.234.787h.019c-.8.433-1.958.963-2.554,1.205l-1.059.415,1.059-2.072a12.5,12.5,0,0,1,1.652-2.568A16.953,16.953,0,0,0,336.8,224.5c.739-1.493,1.657-3.307,2.026-4.03a6.269,6.269,0,0,0,.674-2.183,2.919,2.919,0,0,1,.674-1.639c.849-.994,2.663-6.648,3-9.409a10.135,10.135,0,0,1,.6-2.6c.176-.3.077-.37-.26-.161-.306.192-.563.127-.563-.129a.738.738,0,0,1,.513-.659c.291-.1.581-1.3.663-2.667a10.96,10.96,0,0,1,.4-2.936c.481-.821,1.093-3.933,1.606-8.125.145-1.22.4-2.955.548-3.854.608-3.645.672-7.178.142-7.821-.338-.4-.353-.657-.049-.657.676,0,1.238-2.347.756-3.1a2.489,2.489,0,0,1-.209-1.494,6.312,6.312,0,0,0-.708-2.7c-.706-1.493-.756-2.041-.254-3.294.768-1.945.962-4.159.365-4.351-.27-.079-.177-.932.211-2.023.595-1.637.578-2.023-.161-3.324-.465-.8-.607-1.316-.336-1.14.336.209.418-.257.242-1.35-.259-1.443-.789-5.715-1.592-12.748a15.968,15.968,0,0,0-.545-2.955,7.3,7.3,0,0,1-.388-1.478c-.752-6.535-1.122-7.82-2.133-7.194-.321.194-.563.034-.563-.385a1.035,1.035,0,0,1,.624-.93c.468-.161.4-.98-.286-3.612a15.488,15.488,0,0,0-1.575-4.16,3.223,3.223,0,0,1-.515-2.136c.1-.836-.111-1.493-.53-1.654-.366-.145-.542-.45-.4-.692a3.067,3.067,0,0,0-.515-1.91c-.418-.819-.639-1.493-.465-1.493.5,0-1.847-3.645-2.893-4.5-.542-.451-.852-1.012-.691-1.268.309-.5-2.758-5.815-4.543-7.854a4.745,4.745,0,0,1-1.028-1.59c0-.674-3.259-3.58-3.612-3.227-.194.192-.338.064-.338-.256,0-.337-.225-.483-.5-.306s-.37,0-.225-.386c.142-.368-.548-1.525-1.541-2.585-1.622-1.716-1.717-1.942-.886-2.263.515-.207.708-.385.436-.417-.276-.016-.225-.21.127-.435.465-.29.5-.994.145-2.826-.45-2.424-.21-3.226,1.075-3.483a71.8,71.8,0,0,1,12.96-1.35c3.517-.111,6.407-.239,6.407-.272a23.747,23.747,0,0,1,2.714-.37c3.53-.352,9.005-.241,9.346.226a5.484,5.484,0,0,0,2.393.448c2.519.1,5.522,1.029,5.522,1.687,0,.257.273.417.628.352.994-.209,2.824,1.029,2.824,1.912,0,.432.145.659.338.466.368-.356,2.136,1.074,2.136,1.734a13.579,13.579,0,0,0,1.684,2.826c.931,1.334,1.544,2.57,1.365,2.762s0,.593.416.9a11.783,11.783,0,0,1,1.915,3.789,68.728,68.728,0,0,0,4.35,10.114,20.72,20.72,0,0,1,1.142,3.2c1.074,3.9,2.439,6.407,3.695,6.712,1.219.3,1.169,1.687-.082,1.687a.717.717,0,0,0-.675.753,1.181,1.181,0,0,1-.757,1.028,1.861,1.861,0,0,0-.768,1.59c-.049,1.3-.049,1.3-.483-.176a4.4,4.4,0,0,0-1.187-2.007,3.374,3.374,0,0,1-.851-2.121,4.052,4.052,0,0,0-1-2.359,5.382,5.382,0,0,1-1.192-2.489c-.177-.93-.608-1.815-.977-1.96-.868-.336-2.17-2.954-2.17-4.368a2.564,2.564,0,0,0-.722-1.7c-.768-.639-3.227-5.506-3.227-6.39a.517.517,0,0,0-.5-.53c-.257,0-.481-.4-.481-.883a3.752,3.752,0,0,0-.724-1.846,3.659,3.659,0,0,1-.739-1.75,3.088,3.088,0,0,0-1.012-1.687,2.794,2.794,0,0,1-.979-1.542c0-.352-.3-.53-.673-.383a.733.733,0,0,1-.948-.435c-.337-.851-3.388-.851-3.677.016-.115.321.595,1.415,1.56,2.426,1.17,1.188,1.684,2.12,1.508,2.68a1.04,1.04,0,0,0,.239,1.173,1.5,1.5,0,0,1,.513,1.157c0,.771.355,1.6,1.851,4.287.287.547,1.009,2.025,1.585,3.292a10.688,10.688,0,0,0,1.77,2.89,2.5,2.5,0,0,1,.706,1.67,2.667,2.667,0,0,0,.546,1.622,9.489,9.489,0,0,1,1.125,1.54c.3.547,1.461,2.331,2.583,3.952a49.124,49.124,0,0,1,3.1,5.156,12.565,12.565,0,0,0,1.975,3.019c.837.753,1,.753,1.689.062.431-.433.879-.562,1.057-.306.161.275.226,5.382.147,11.372-.114,8.942,0,10.982.561,11.335.562.336.593.819.142,2.568-.3,1.174-.8,3.7-1.107,5.589a32.394,32.394,0,0,1-1.059,4.674,18.571,18.571,0,0,0-.723,3.452c-.127,1.235-.321,2.68-.4,3.227a27.425,27.425,0,0,0-.227,3.05c-.016,1.525-.26,2.121-.9,2.282-.531.144-.337.239.5.289.883.032,1.381-.21,1.413-.691a3.6,3.6,0,0,1,.561-2.056,73.42,73.42,0,0,0,2.008-9.281,1.615,1.615,0,0,1,.58-.868c.3-.24.206-.561-.242-.851-.565-.368-.581-.5-.095-.5.416,0,.543-.355.337-1-.179-.547-.1-1,.194-1,.834,0,1.956-3.018,2.294-6.165.561-5.171.611-14.276.1-14.919-.337-.416-.309-.61.111-.61.642,0,.465-4.272-.243-6.053a1.646,1.646,0,0,1,.195-1.525c.385-.467.353-.9-.176-1.592a3.615,3.615,0,0,1-.738-1.621c-.05-1.942,2.151,1.863,4.383,7.581.675,1.717,2.537,7.851,2.747,9.008a5.718,5.718,0,0,0,.45,1.509,9.267,9.267,0,0,1,.368,2.5,4.845,4.845,0,0,0,.5,2.313c.207.129.256.53.126.9a1.417,1.417,0,0,0,.42,1.334,6.617,6.617,0,0,1,.739,3.4c.32,12.8.32,17.375,0,17.583m21.179-22.482a8.751,8.751,0,0,0-.272,3.9,3.378,3.378,0,0,1-.142,2.329c-.565.673-.646,6.295-.1,7.162.176.3.109.4-.177.207-.739-.448-1.028,1.108-.867,4.45a7.332,7.332,0,0,1-.577,4.013,9.916,9.916,0,0,0-.772,4.1l-.049,2.938-2.214,1.012a15.935,15.935,0,0,0-3.439,2.152,17.621,17.621,0,0,1-3.371,2.2c-1.2.595-2.166,1.3-2.166,1.541a.542.542,0,0,1-.58.466h.015a3.271,3.271,0,0,0-1.556.866c-.962.834-.98.821-.643-.368a22.311,22.311,0,0,1,1.224-3.612c.718-1.784.706-2.457-.051-3.276-.513-.546-.447-.611.3-.337.656.241.834.129.639-.37a2.085,2.085,0,0,1,.4-1.622c.37-.545.8-3.068.977-5.843a41.43,41.43,0,0,1,.563-5.267,2,2,0,0,0-.336-1.431c-.431-.8-.42-1.154.016-1.428.42-.259.45-1.11.094-3.26a48.894,48.894,0,0,1-.53-6.36c-.029-2.538-.256-3.612-.836-4.029-.575-.433-.641-.8-.271-1.526a2.171,2.171,0,0,0-.161-2.248c-.4-.769-.5-1.429-.224-1.59s.224-.722-.129-1.365a8.978,8.978,0,0,1-.674-3.116,9.247,9.247,0,0,0-.658-3.048,6.328,6.328,0,0,1-.546-2.507,2.544,2.544,0,0,0-.5-1.782,3.112,3.112,0,0,1-.478-2.007c0-.932-.211-1.7-.452-1.7-.338,0-1.09-1.765-.979-2.361a7.185,7.185,0,0,0-.774-1.38c-.447-.661-.674-1.43-.513-1.686.165-.274.115-.483-.11-.483s-.819-.836-1.316-1.846c-.5-1.028-1.108-2.249-1.349-2.713a4.222,4.222,0,0,1-.435-1.6c0-.4-.195-.739-.416-.739-.468,0-2.828-5.107-3.325-7.212a7.286,7.286,0,0,0-1.14-2.407,18.769,18.769,0,0,1-3.021-5.925,9.662,9.662,0,0,0-1.364-2.843c-.867-.98-.512-1.124.807-.289,1.266.786,4.029.16,5.57-1.27,1.251-1.17,1.3-1.17,2.694-.321a17.107,17.107,0,0,1,3.135,2.89c.933,1.107,1.877,1.9,2.086,1.767.227-.131.4-.034.4.225,0,.417.96.868,2.824,1.333a.888.888,0,0,0,.9-.3c.433-.691,1.2-.032.9.753-.147.386.189,1.157.753,1.717a3.4,3.4,0,0,1,1.028,1.72,1.01,1.01,0,0,0,.368.867c.608.275,2.361,4.352,3.452,8.062a134.273,134.273,0,0,1,3.824,23.555,13.905,13.905,0,0,0,.431,3.678,1.912,1.912,0,0,1,.306,1.157c0,1.235,2.81,4.079,3.712,3.742.9-.355.913-.081.077,2.68m3.115-15.815a13.832,13.832,0,0,1-.674-3.792,21.159,21.159,0,0,0-.48-3.628,35.063,35.063,0,0,1-1.077-5.556c-.145-.868-.386-2.153-.547-2.828a21.286,21.286,0,0,1-.448-2.825,7.313,7.313,0,0,0-1.078-2.955,29.394,29.394,0,0,1-3.1-7.771l-.353-1.574,3.518-.852c5.586-1.364,6.21-1.622,6.21-2.568,0-.819.067-.834,1.657-.224a4.172,4.172,0,0,0,2.613.016c.774-.242,3.952-.9,7.068-1.464,3.773-.689,5.893-1.3,6.294-1.847.337-.448.628-.56.628-.256,0,.531.593.515,4.431-.1a26.917,26.917,0,0,1,3.132-.225c1.476-.032,1.958-.272,2.151-1.045.242-.929.336-.944,1.122-.24.788.722,1.193.722,4.514.016,5.928-1.268,7.305-1.38,8.11-.706,1.541,1.269,4.013,8.367,3.306,9.507-.161.256-.029.318.275.111.352-.21.592,0,.61.547a36.086,36.086,0,0,0,.849,5.8,8.049,8.049,0,0,1,.082,3.548,4.51,4.51,0,0,0-.161,2.247c.643,2.793.05,9.283-.851,9.283-.241,0-.452.336-.452.739s.229.737.5.737a.454.454,0,0,1,.481.418c0,.416-7.228,4.207-8.125,4.255a22.722,22.722,0,0,0-4.947,1.735,8.218,8.218,0,0,1-2.327.7,5.941,5.941,0,0,0-2.458.947c-.8.806-3.822,1.88-4.354,1.543a.564.564,0,0,0-.718.257l.013-.016c-.947,1.526-3.291,1.509-4.946,0a6.834,6.834,0,0,0-2.456-1.268,5.186,5.186,0,0,1-2.056-.949c-.754-.737-6.4-1.348-7.485-.784a2.157,2.157,0,0,1-1.441.191c-.338-.112-.628,0-.628.257s-.642.739-1.428,1.077a7.415,7.415,0,0,0-2.3,1.541c-1.124,1.236-2.183,1.188-2.183-.08a4.736,4.736,0,0,0-.5-1.926m261.052,78.248a10.041,10.041,0,0,0-.739,2.649c-.691,4.819-1.478,8.382-1.878,8.382-.241,0-.45.4-.45.914,0,.868-.53,1.591-3.967,5.364a5.567,5.567,0,0,0-1.461,2.3c0,.98-2.506,5.733-3.019,5.733-.242,0-.433.274-.433.61a8.48,8.48,0,0,1-2.3,2.587c-1.253,1.092-2.97,2.665-3.822,3.5-1.621,1.621-7.98,6.615-8.414,6.615a3.867,3.867,0,0,0-1.187.868,27.342,27.342,0,0,1-3.437,2.343,9.9,9.9,0,0,0-2.537,1.831c0,.194-.707.723-1.574,1.173a16.364,16.364,0,0,0-3.036,2.183c-3.628,3.39-13.3,7.1-20.055,7.693-1.22.1-4,.545-6.165.979a39.888,39.888,0,0,1-6.889.786,33.429,33.429,0,0,0-5.171.386,5.746,5.746,0,0,1-3.083-.034,5.2,5.2,0,0,0-3.02.02c-1.188.271-3.468.641-5.075.818-2.713.32-23.8.577-24.086.3a26.229,26.229,0,0,0-3.035-.659,12.37,12.37,0,0,1-3.533-1.044,2.085,2.085,0,0,0-1.589-.256,1.609,1.609,0,0,1-1.526-.416c-.321-.387-.771-.565-1.012-.42-.385.241-2.729-.608-4.993-1.8a3.71,3.71,0,0,0-1.365-.451,8.968,8.968,0,0,1-2.424-1.219c-1.043-.659-2.007-1.093-2.153-.964-.207.225-2.825-.915-5.538-2.393-.53-.29-1.815-.979-2.827-1.524-1.029-.548-1.846-1.286-1.846-1.622,0-.691-4.979-3.245-6.039-3.1a7.154,7.154,0,0,1-1.365.016c-.658-.045-.658-.111,0-.545.611-.4.5-.691-.771-1.831a21.512,21.512,0,0,0-2.3-1.861c-3.806-2.346-9.62-6.568-10.645-7.725a4.076,4.076,0,0,0-2.169-1.4,1.34,1.34,0,0,1-1.2-.738,3.835,3.835,0,0,0-1.591-1.415c-.722-.385-2.007-1.059-2.858-1.509a8.21,8.21,0,0,1-2.152-1.541,2.031,2.031,0,0,0-1.284-.723.7.7,0,0,1-.692-.722c0-.611-3.837-2.73-4.945-2.73a23.413,23.413,0,0,1-3.677-3.179,21.307,21.307,0,0,0-4.351-3.533,2.955,2.955,0,0,1-1.381-.787,1.5,1.5,0,0,0-.978-.561,12.7,12.7,0,0,1-2.908-1.64,22.741,22.741,0,0,0-2.475-1.558,24.91,24.91,0,0,1-3.962-1.4,7.042,7.042,0,0,0-2.232-.625,4.288,4.288,0,0,1-1.735-.418,17.189,17.189,0,0,0-2.958-.8,67.109,67.109,0,0,1-8.844-1.912,65.367,65.367,0,0,0-8.626-2.04c-4.479-.528-6.5-.993-7.9-1.861a6.069,6.069,0,0,0-2.168-.9,2.855,2.855,0,0,1-1.556-1.029,3.666,3.666,0,0,0-2.408-1.059c-.836-.018-1.508-.207-1.508-.417s-.659-.515-1.464-.693a10.964,10.964,0,0,1-3.321-1.765,19.394,19.394,0,0,1-4.289-4.159c-.948-1.092-2.634-2.986-3.757-4.207a19.066,19.066,0,0,1-2.86-4.063c-.45-1.012-1-1.846-1.2-1.846s-.372-.562-.372-1.236-.189-1.236-.43-1.236c-1.476,0-2.426-19.221-1-20.217a6.669,6.669,0,0,0,.627-2.472c1.044-8.656,1.222-10.726.978-11.707a1.985,1.985,0,0,1,.515-1.88,1.814,1.814,0,0,0,.352-2.6c-.53-.836.807-4.882,2.122-6.425,1.961-2.3,3.824-4.027,4.4-4.092.309-.035,1.125-.114,1.8-.177,1.365-.145,4.946,1.46,4.946,2.232,0,.256-.418.481-.933.481-1.009,0-3.516,2.921-3.516,4.1a1.905,1.905,0,0,1-.688,1.285c-.837.689-2.411,5.329-2.025,5.955.145.242-.079.627-.495.869-.885.5-1.11,4.078-.372,6.036a11.931,11.931,0,0,1,.274,3.918A11.16,11.16,0,0,0,428,165.91a4.445,4.445,0,0,1,.5,2.377c-.353.565,2.52,5.875,3.757,6.952a2.729,2.729,0,0,1,.945,1.542,2.038,2.038,0,0,0,.726,1.333c.4.338.627.8.495,1.027-.352.565,1.659,2.378,3.471,3.132a23.211,23.211,0,0,1,4.381,3.42,18.808,18.808,0,0,0,3.295,2.8,5.2,5.2,0,0,1,1.734,1.236,4.526,4.526,0,0,0,2.264,1.22,1.383,1.383,0,0,1,1.219.737,1.2,1.2,0,0,0,1.044.756c.886,0,7.4,2.841,8.5,3.726a13.016,13.016,0,0,0,4.641,1.654.925.925,0,0,1,.737.368,5.8,5.8,0,0,0,3.9,1.639,12.465,12.465,0,0,1,3.949,1.238,12.751,12.751,0,0,0,3.55,1.236c.547,0,.977.16.977.368s.613.417,1.365.482a13.671,13.671,0,0,1,5.237,1.285c1.044.448,1.991.818,2.072.818a13.989,13.989,0,0,1,1.541.577,14.16,14.16,0,0,0,2.537.754,10.468,10.468,0,0,1,2.955,1.381,23.067,23.067,0,0,0,4.785,2.12,12.321,12.321,0,0,1,5.171,3.036,33.233,33.233,0,0,0,3.325,2.858c.61.4,1.108.948,1.108,1.205a11.349,11.349,0,0,0,1.478,2.633,10.21,10.21,0,0,1,1.493,2.665.5.5,0,0,0,.481.531.6.6,0,0,1,.515.624,5.337,5.337,0,0,0,1.478,2.056,6.36,6.36,0,0,1,1.461,1.8,52.4,52.4,0,0,0,4.592,7.771c2.794,3.132,8.687,8.478,9.329,8.478a3.856,3.856,0,0,1,1.493.979,3.579,3.579,0,0,0,1.622.982,34.536,34.536,0,0,1,4.946,2.2c2.393,1.2,4.529,2.072,4.754,1.943s.4-.049.4.191c0,.466,4.736,2.087,6.086,2.087a4.154,4.154,0,0,1,1.686.451,61.268,61.268,0,0,0,10.163,3.742,11.3,11.3,0,0,1,2.715.738c3.869,2.023,6.31,2.473,13.633,2.538,11.609.095,13.455.016,13.825-.58.177-.3.836-.433,1.446-.287,1.044.272,8.253-.869,9.169-1.448a48.021,48.021,0,0,1,4.769-1.237c4.9-1.108,5.813-1.331,5.813-1.475a2.615,2.615,0,0,1,.979-.241,30.454,30.454,0,0,0,3.949-1.205c1.639-.578,3.63-1.236,4.449-1.478a33.972,33.972,0,0,0,4.752-2.168,20.5,20.5,0,0,1,5.284-1.99,10.534,10.534,0,0,0,2.97-.754,4.718,4.718,0,0,1,1.781-.532c1.029,0,5.027-1.814,5.429-2.472a.561.561,0,0,1,.737-.24.557.557,0,0,0,.74-.242.546.546,0,0,1,.707-.271c.209.127,1.123-.42,2.022-1.221a6.148,6.148,0,0,1,2.3-1.479c.352,0,.658-.161.658-.368a11.482,11.482,0,0,1,3.082-2.071c3.565-1.96,4.334-2.763,6.055-6.311.673-1.429,1.46-2.585,1.717-2.585a.505.505,0,0,0,.481-.53,9.494,9.494,0,0,1,1.4-2.585,23.861,23.861,0,0,0,4.48-13.312,13.816,13.816,0,0,1,.224-3.2c.435-.739,1.028-6.407.964-9.234-.144-6.422-.241-7.4-.738-7.995a1.522,1.522,0,0,1-.242-1.35,2.619,2.619,0,0,0-.689-1.927,4.5,4.5,0,0,1-.948-2.007c0-.432-.209-.786-.465-.786s-.594-.451-.772-1-.5-.868-.738-.739c-.225.144-.289-.16-.16-.673.287-1.077-1.67-3.149-2.505-2.649-.306.174-.272-.034.065-.451.529-.642.32-.884-1.349-1.637-1.092-.5-1.976-1.044-1.976-1.237s-.883-.627-1.976-.979a5,5,0,0,1-1.975-.964c0-.176-.658-.707-1.476-1.188s-1.477-.756-1.477-.628c0,.146-.692-.383-1.543-1.154a20.017,20.017,0,0,0-3.692-2.52c-1.189-.612-2.169-1.3-2.169-1.559,0-.241-.192-.321-.432-.176-.242.162-.707-.032-1.028-.418a4.292,4.292,0,0,0-2.1-1.042,6.267,6.267,0,0,1-2.761-1.8c-.769-.917-1.541-1.381-2.1-1.239-.594.161-.787.019-.594-.465.146-.385.08-.658-.16-.592a6.979,6.979,0,0,1-2.3-.707,12.153,12.153,0,0,0-1.976-.739,5.944,5.944,0,0,1-1.331-.61,7.128,7.128,0,0,0-4.128-1.11c-.947,0-1.189-.142-.738-.415.513-.322.465-.417-.194-.435-.482,0-.867-.257-.867-.578s-.145-.433-.321-.256c-.161.159-.74.079-1.253-.21a9.208,9.208,0,0,0-1.911-.722c-.53-.112-1.381-.3-1.911-.418a10,10,0,0,1-1.943-.738,7.1,7.1,0,0,0-2.712-.53,3,3,0,0,1-2.057-.546,1.255,1.255,0,0,0-1.268-.291c-.515.131-.932.05-.932-.207,0-.24-.161-.4-.368-.37a2.484,2.484,0,0,1-1.11-.209c-1.652-.674-4.624-1.285-5.01-1.044-.225.13-.416.05-.416-.192s-.9-.739-1.975-1.093a7.331,7.331,0,0,1-2.538-1.315,1.906,1.906,0,0,0-1.3-.659,3.007,3.007,0,0,1-1.637-.787,3.959,3.959,0,0,0-2.087-.866c-.676-.034-1.125-.242-1-.451s-.161-.513-.658-.7a5.3,5.3,0,0,1-1.542-.98c-.787-.772-1.573-.852-1.573-.16a.481.481,0,0,1-.45.5c-.242,0-.322-.481-.161-1.059.176-.674.08-.948-.241-.756-.29.179-.8-.015-1.157-.433-1.14-1.4-2.426-1.83-3.292-1.123-.689.562-.754.546-.515-.112a1.121,1.121,0,0,0-.528-1.285c-3.2-1.975-5.732-3.147-6.327-2.906-.386.145-.561.049-.4-.224.29-.47.082-.563-1.364-.692a1.416,1.416,0,0,1-.851-.3c-.45-.466-6.006-2.038-6.262-1.781-.145.144-.739.061-1.333-.161a32.831,32.831,0,0,0-5.492-.739,20.952,20.952,0,0,1-4.913-.739c-.643-.5-3.6-1.044-5.188-.962-.673.032-1.734.095-2.344.111-.609.032-1.107.257-1.107.5,0,.257-.337.176-.738-.161a1.07,1.07,0,0,0-1.365-.159,7.239,7.239,0,0,1-3.084.32c-5.6-.291-9.138-.3-9.426-.016-.176.177-.914,0-1.652-.386-.739-.368-1.542-.5-1.8-.29a6.817,6.817,0,0,1-2.505.676c-1.51.177-2.136.065-2.327-.45-.242-.61-.435-.61-1.446.047a2.666,2.666,0,0,1-1.991.467,1.687,1.687,0,0,0-1.525.272c-.386.321-.9.467-1.139.321-.933-.578-6.858-.834-8.126-.355-1.06.4-1.35.37-1.35-.144,0-.482-.626-.595-2.456-.417l-2.442.241.24-2.071a18.947,18.947,0,0,1,.708-3.244c.433-1.124.611-1.172,3.8-.932a48.322,48.322,0,0,1,6.311.994c1.622.418,3.566.853,4.3.964.756.114,2.087.338,2.971.5s2.488.355,3.563.452c3.229.289,28.006.271,29.611-.016,1.734-.323,1.2-.3,7.387-.225a51.25,51.25,0,0,0,7.162-.353c2.81-.513,14.307-.226,14.307.353a9.744,9.744,0,0,0,3.084.175c3.645-.081,11.177.691,11.932,1.22a21.922,21.922,0,0,0,3.227,1.285,20.165,20.165,0,0,1,3.29,1.364,5,5,0,0,0,1.72.659,1.91,1.91,0,0,1,1.331.722c.08.274.547.5,1.028.5a2.952,2.952,0,0,1,1.767.982,3.156,3.156,0,0,0,1.269.993,21.562,21.562,0,0,1,3.324,1.75,15.764,15.764,0,0,0,3.949,1.831c.546.032.868.29.707.546-.161.272.176.355.787.192.578-.16.948-.111.819.114-.129.209.08.658.5.994.577.482.723.482.738-.061,0-.435.145-.5.37-.162.611.867,3.887,2.7,4.239,2.344.177-.176.322-.081.322.226,0,.289.642.672,1.445.849a4.318,4.318,0,0,1,2.022,1.029,1.987,1.987,0,0,0,1.044.706,3.836,3.836,0,0,1,1.51.979,3.61,3.61,0,0,0,1.717,1,.613.613,0,0,1,.643.576c0,.307.144.418.321.244.192-.179.738.047,1.235.495s1.062.676,1.238.5.627-.082.979.224c.37.3.658.4.658.225s.321-.046.691.3c.386.353.562.837.417,1.077s-.016.29.29.1c.321-.192,1.14.224,1.831.916a4.2,4.2,0,0,0,1.991,1.251,1.233,1.233,0,0,1,1.028.739,1.073,1.073,0,0,0,.834.753,4.918,4.918,0,0,1,1.926,1.159,3.824,3.824,0,0,0,2.554,1.043c.867-.1,1.124.065.932.546-.177.5.112.707.994.707a3.141,3.141,0,0,1,1.976.737,3.789,3.789,0,0,0,1.8.884,5.46,5.46,0,0,1,2.133,1.107,5.153,5.153,0,0,0,2.056,1.093,4.285,4.285,0,0,1,1.975,1.124c1.8,1.75,4.208,3.533,4.208,3.115.016-.241.37.29.787,1.157a21.654,21.654,0,0,0,3.083,3.983,10.488,10.488,0,0,1,2.458,3.6c.1.657.37,1.269.627,1.365a.748.748,0,0,1,.433.643,11.107,11.107,0,0,0,.963,2.441,20.682,20.682,0,0,1,1.269,3.436c.176.8.626,1.461,1.028,1.461s.689.481.689,1.124a2.987,2.987,0,0,0,.417,1.606c.643.721,2.1,6.437,2.313,9.025.386,4.785.306,9.875-.16,10.758" transform="translate(0 0)" fill="#fff"/>
    <path id="Path_1832" data-name="Path 1832" d="M233.048,136.389c0,.771-2.071,2.973-2.8,2.973-.353,0-.659.433-.659.977,0,.628-.432,1.078-1.219,1.286-.689.161-1.236.53-1.236.819a5.512,5.512,0,0,1-1.478,1.91,4.92,4.92,0,0,0-1.5,2.168,1.112,1.112,0,0,1-.607,1c-.914.352-8.752,10.728-8.752,11.577a.489.489,0,0,1-.5.483,9.037,9.037,0,0,0-2.474,2.038c-1.426,1.478-1.972,2.441-1.972,3.58a12.736,12.736,0,0,1-.307,2.65c-.561,2.087,1.622,1.316,4.224-1.478,4.465-4.8,12.83-16.362,12.847-17.742.016-.482.286-.757.642-.611.577.225,1.364-.834,2.12-2.859.177-.482.531-.867.768-.867s.435-.3.435-.692a6.848,6.848,0,0,1,2.409-4.06c1.078-.756,1.51-3.631.548-3.631a.488.488,0,0,0-.5.482" transform="translate(52.155 33.84)" fill="#fff"/>
    <path id="Path_1833" data-name="Path 1833" d="M295.591,56.888c0-.37,1.493-1.414,3.322-2.329,1.85-.916,3.823-1.96,4.42-2.328,1.8-1.124.894-1.831-2.331-1.831-2.874,0-3.036.065-5.412,2.377-2.281,2.183-2.956,3.615-2.136,4.449.595.593,2.136.336,2.136-.337" transform="translate(72.985 12.549)" fill="#fff"/>
    <path id="Path_1834" data-name="Path 1834" d="M230.107,39.3c.867,0,1.044-.209.834-1.027-.192-.756-.077-.948.436-.756.381.145.7.035.7-.256s.29-.417.644-.289,2.392-.947,4.56-2.409a20.848,20.848,0,0,1,4.751-2.649,1.529,1.529,0,0,0,1.16-.532,1.226,1.226,0,0,1,1.137-.416,3.912,3.912,0,0,0,1.559-.209,24.2,24.2,0,0,1,9.009-1.139c2.953.127,3.821,0,3.821-.515a.667.667,0,0,1,.609-.674c.355-.016-.047-.385-.852-.836-1.669-.916-12.36-1.4-12.861-.578a.513.513,0,0,1-.7.192c-.757-.465-4.369,1.286-5.173,2.522a2.6,2.6,0,0,1-1.75,1.189c-.53,0-.979.274-.979.61-.016.917-1.911,2.474-4.672,3.838-1.365.676-2.5,1.219-2.553,1.219a6.394,6.394,0,0,0-.436,1.366V37.94c-.287,1.188-.189,1.364.757,1.364" transform="translate(57.071 6.623)" fill="#fff"/>
    <path id="Path_1835" data-name="Path 1835" d="M264.215,42.859c.321-.321.592-.4.592-.192s.565.031,1.255-.42a2.239,2.239,0,0,1,1.782-.481.7.7,0,0,0,.929-.3c.386-.643.807-.787,3.678-1.316a6.733,6.733,0,0,0,1.975-.61c.435-.29,15-.225,18.741.095.818.064,1.493-.095,1.493-.368a2.45,2.45,0,0,1,.4-1.108c.415-.659-.933-1.493-1.493-.933-.165.177-.612.049-.982-.256s-.786-.435-.929-.29a8.8,8.8,0,0,1-3.083-.353c-6.682-1.476-18.389-.289-20.3,2.056a6.365,6.365,0,0,1-2.969,1.881c-.149.047-.949.4-1.817.786-1.266.578-1.478.867-1.093,1.557.563,1.012,1.015,1.06,1.816.257" transform="translate(65.292 8.882)" fill="#fff"/>
    <path id="Path_1836" data-name="Path 1836" d="M206.413,42.832c.257-.723-.256-1.108-.932-.692-.416.274-.4.466.1.788.385.241.738.192.833-.1" transform="translate(51.09 10.45)" fill="#fff"/>
    <path id="Path_1837" data-name="Path 1837" d="M52.918,89.3a37.832,37.832,0,0,1,1.526-3.711,7.846,7.846,0,0,0,.787-2.537,4.889,4.889,0,0,1,1.139-2.423,3.741,3.741,0,0,0,1-1.656,1.954,1.954,0,0,1,.738-1.2,2.5,2.5,0,0,0,.194-3.292c-.37-.386-1.077-.4-2.347-.05-2.2.595-3.033,1.238-3.033,2.314a43.323,43.323,0,0,1-2.283,6.231c-1.25,2.969-2.808,6.7-3.465,8.252-.662,1.575-1.06,3.068-.9,3.324.161.275.1.5-.144.5s-1.044,1.379-1.8,3.083c-.752,1.685-1.895,4.158-2.552,5.459a14.866,14.866,0,0,0-1.189,2.843A33.767,33.767,0,0,1,38.8,110.7c-.977,2.1-1.957,4.272-2.182,4.8-.21.548-.866,2.057-1.46,3.341a24.319,24.319,0,0,0-1.238,3.2,2.33,2.33,0,0,1-.242.867c-.352,0-.286,5.812.082,7.273.448,1.83,1.4,2.344,2.664,1.479.29-.192.807-2.248,1.16-4.559a23.03,23.03,0,0,1,.993-4.675,14.846,14.846,0,0,0,1-2.714,14.812,14.812,0,0,1,1.559-3.532,4.914,4.914,0,0,0,.929-2.086c0-.726,2.65-6.376,5.976-12.72A96.052,96.052,0,0,0,52.918,89.3" transform="translate(8.328 18.468)" fill="#fff"/>
    <path id="Path_1838" data-name="Path 1838" d="M292.479,28.033c2.763.337,4.384-2.747,1.765-3.372a8.983,8.983,0,0,1-1.814-.611,4.272,4.272,0,0,0-1.235-.4c-1.013-.145-2.569-2.152-2.279-2.906.127-.337-.164-.98-.662-1.429-.848-.756-.978-.739-2.182.385-1.157,1.06-1.239,1.349-.752,2.7.623,1.847,5.138,5.379,7.159,5.637" transform="translate(70.973 4.679)" fill="#fff"/>
  </g>
</svg>
