<svg xmlns="http://www.w3.org/2000/svg" width="22.144" height="22.148" viewBox="0 0 22.144 22.148">
  <path id="globe-solid" d="M15.026,14.787C14.379,10.8,12.851,8,11.074,8s-3.3,2.8-3.952,6.787ZM6.787,19.074a27.989,27.989,0,0,0,.147,2.858h8.274a27.989,27.989,0,0,0,.147-2.858,27.989,27.989,0,0,0-.147-2.858H6.935A27.989,27.989,0,0,0,6.787,19.074Zm14.5-4.287a11.1,11.1,0,0,0-7.055-6.323,15.071,15.071,0,0,1,2.233,6.323ZM7.913,8.464A11.09,11.09,0,0,0,.862,14.787H5.684A15.01,15.01,0,0,1,7.913,8.464Zm13.852,7.752H16.643c.094.938.147,1.9.147,2.858s-.054,1.92-.147,2.858H21.76a10.979,10.979,0,0,0,.384-2.858,11.17,11.17,0,0,0-.38-2.858ZM5.358,19.074c0-.96.054-1.92.147-2.858H.384a10.826,10.826,0,0,0,0,5.716H5.5C5.412,20.994,5.358,20.034,5.358,19.074Zm1.764,4.287c.647,3.988,2.175,6.787,3.952,6.787s3.3-2.8,3.952-6.787Zm7.113,6.323a11.108,11.108,0,0,0,7.055-6.323H16.468A15.071,15.071,0,0,1,14.236,29.684ZM.862,23.361a11.1,11.1,0,0,0,7.055,6.323,15.071,15.071,0,0,1-2.233-6.323H.862Z" transform="translate(0 -8)"/>
</svg>
