<svg xmlns="http://www.w3.org/2000/svg" width="25.907" height="15.546" viewBox="0 0 25.907 15.546">
  <path id="handshake-simple-solid" d="M13.545,70.21,12.33,71.323a2.912,2.912,0,1,1-3.939-4.291L11.7,64h-.267A8.845,8.845,0,0,0,5.19,66.583L1.3,66.595A1.3,1.3,0,0,0,0,67.889v6.469a1.294,1.294,0,0,0,1.259,1.3l4.627,0,3.663,3.312a2.588,2.588,0,0,0,3.643-.375l.734.617a1.544,1.544,0,0,0,2.12-.217l1.27-1.563.218.182a1.3,1.3,0,0,0,1.822-.192l.388-.479a1.292,1.292,0,0,0-.19-1.816Zm11.067-3.615-3.886-.005A8.844,8.844,0,0,0,14.472,64l-.348,0a1.317,1.317,0,0,0-.875.347L9.27,67.979,9.262,68a1.6,1.6,0,0,0-.089,2.267,1.634,1.634,0,0,0,2.272.111c0-.005.01-.005.015-.01L14.7,67.4a.648.648,0,0,1,.875.956l-1.057.966,5.894,4.781a2.568,2.568,0,0,1,.9,1.537h3.306a1.3,1.3,0,0,0,1.3-1.295V67.89A1.294,1.294,0,0,0,24.612,66.595Z" transform="translate(0 -64)" fill="#fff"/>
</svg>
